<?xml version="1.0" encoding="UTF-8" standalone="no"?>
<!-- Created with Inkscape (http://www.inkscape.org/) -->

<svg
   xmlns:dc="http://purl.org/dc/elements/1.1/"
   xmlns:cc="http://creativecommons.org/ns#"
   xmlns:rdf="http://www.w3.org/1999/02/22-rdf-syntax-ns#"
   xmlns:svg="http://www.w3.org/2000/svg"
   xmlns="http://www.w3.org/2000/svg"
   xmlns:sodipodi="http://sodipodi.sourceforge.net/DTD/sodipodi-0.dtd"
   xmlns:inkscape="http://www.inkscape.org/namespaces/inkscape"
   width="128"
   height="128"
   id="svg4389"
   version="1.1"
   inkscape:version="0.48.4 r9939"
   inkscape:export-filename="C:\Users\Michiel\LD28\LD28-android\assets\background.png"
   inkscape:export-xdpi="90"
   inkscape:export-ydpi="90"
   sodipodi:docname="Nieuw document 5">
  <defs
     id="defs4391" />
  <sodipodi:namedview
     id="base"
     pagecolor="#ffffff"
     bordercolor="#666666"
     borderopacity="1.0"
     inkscape:pageopacity="0.0"
     inkscape:pageshadow="2"
     inkscape:zoom="4.5851455"
     inkscape:cx="46.686557"
     inkscape:cy="69.50888"
     inkscape:document-units="px"
     inkscape:current-layer="layer1"
     showgrid="false"
     inkscape:snap-page="true"
     inkscape:window-width="1920"
     inkscape:window-height="1017"
     inkscape:window-x="-8"
     inkscape:window-y="-8"
     inkscape:window-maximized="1" />
  <metadata
     id="metadata4394">
    <rdf:RDF>
      <cc:Work
         rdf:about="">
        <dc:format>image/svg+xml</dc:format>
        <dc:type
           rdf:resource="http://purl.org/dc/dcmitype/StillImage" />
        <dc:title></dc:title>
      </cc:Work>
    </rdf:RDF>
  </metadata>
  <g
     inkscape:label="Laag 1"
     inkscape:groupmode="layer"
     id="layer1"
     transform="translate(0,-924.36218)">
    <rect
       style="fill:#0a950b;fill-opacity:1;stroke:none"
       id="rect4397"
       width="128"
       height="128"
       x="0"
       y="0"
       transform="translate(0,924.36218)" />
    <path
       style="fill:#000000;fill-opacity:0.06132076;stroke:none"
       d="m 17.883838,1000.6735 5.45239,-22.24572 19.628603,-3.05334 7.851441,12.64954 -1.308574,17.22952 -17.665742,3.9258 z"
       id="path6819"
       inkscape:connector-curvature="0" />
    <path
       style="fill:#000000;fill-opacity:0.06132076;stroke:none"
       d="m 47.981029,1020.3021 10.250492,-9.8143 16.357169,-1.5266 14.394309,8.2876 3.053338,11.341 -10.904779,10.2505 c 0,0 -29.879095,4.7981 -30.097191,3.7076 -0.218096,-1.0905 -9.37811,-10.0324 -9.37811,-10.0324 z"
       id="path6821"
       inkscape:connector-curvature="0" />
    <path
       style="fill:#000000;fill-opacity:0.06132076;stroke:none"
       d="m 17.447647,927.61151 c 0.872382,-0.2181 17.665742,0.87238 18.75622,1.30857 1.090478,0.43619 6.542868,14.63451 6.542868,14.63451 L 31.187668,957.27251 8.9419192,952.6925 1.6918554e-7,934.80866 z"
       id="path6823"
       inkscape:connector-curvature="0" />
    <path
       style="fill:#000000;fill-opacity:0.06132076;stroke:none"
       d="m 75.897266,969.92205 15.70288,20.71908 24.644804,0.87238 8.28763,-8.94192 -3.27143,-8.50573 -12.21335,-2.18095 -14.612414,1.74476 -8.28763,-6.76096 -4.58001,-6.97906 -9.37811,2.61715 z"
       id="path6825"
       inkscape:connector-curvature="0" />
    <path
       inkscape:connector-curvature="0"
       id="path6827"
       d="m 60.194382,945.05916 c 0.872382,-0.2181 17.665742,0.87238 18.75622,1.30857 1.090478,0.43619 6.542868,14.63451 6.542868,14.63451 l -11.559067,13.71792 -22.245749,-4.58001 -8.941919,-17.88384 z"
       style="fill:#000000;fill-opacity:0.06132076;stroke:none" />
    <path
       inkscape:connector-curvature="0"
       id="path6829"
       d="m 74.367287,963.84199 -20.486276,16.00539 -0.510455,24.65492 9.06265,8.1555 8.45678,-3.396 2.00139,-12.24403 -1.95912,-14.58523 6.638547,-8.386 6.911061,-4.68199 -2.754564,-9.33867 z"
       style="fill:#000000;fill-opacity:0.06132076;stroke:none" />
    <path
       style="fill:#000000;fill-opacity:0.06132076;stroke:none"
       d="m 113.69866,936.07051 c 0.64417,0.62742 8.54551,15.48592 8.74778,16.64285 0.20226,1.15694 -9.00893,13.25962 -9.00893,13.25962 l -17.746148,-2.62061 -7.799523,-21.33113 10.511672,-17.00865 z"
       id="path6831"
       inkscape:connector-curvature="0" />
    <path
       inkscape:connector-curvature="0"
       id="path6833"
       d="m 59.87707,988.71205 22.010436,-6.33582 12.412704,15.50902 -7.067933,13.10345 -15.597599,7.4354 -12.193172,-13.3723 z"
       style="fill:#000000;fill-opacity:0.06132076;stroke:none" />
    <path
       style="fill:#000000;fill-opacity:0.06132076;stroke:none"
       d="m 54.43129,967.35752 c 0.52327,0.7313 5.676972,16.75146 5.671785,17.92593 -0.0052,1.17447 -11.208572,11.46062 -11.208572,11.46062 l -17.004631,-5.71278 -3.910648,-22.37312 13.349663,-14.88544 z"
       id="path6835"
       inkscape:connector-curvature="0" />
    <path
       inkscape:connector-curvature="0"
       id="path6837"
       d="m 41.481892,1013.8125 c 0.650416,0.5464 8.467726,13.3501 8.650419,14.3395 0.182693,0.9892 -9.59031,11.1284 -9.59031,11.1284 l -18.246968,-2.5611 -7.567183,-18.3154 11.224482,-14.2943 z"
       style="fill:#000000;fill-opacity:0.06132076;stroke:none" />
    <path
       inkscape:connector-curvature="0"
       id="path6839"
       d="m 40.994323,946.67099 22.431561,4.62893 3.77458,19.50275 -12.351623,8.31225 -17.266069,-0.67278 -4.574116,-17.50908 z"
       style="fill:#000000;fill-opacity:0.06132076;stroke:none" />
    <path
       inkscape:connector-curvature="0"
       id="path6841"
       d="m 22.488135,977.47105 10.185365,9.88187 2.128325,16.28978 -7.751541,14.69 -11.220782,3.4691 -10.6453787,-10.5196 c 0,0 -5.89588541,-29.682 -4.81416291,-29.94013 1.08172251,-0.25813 9.68000261,-9.74143 9.68000261,-9.74143 z"
       style="fill:#000000;fill-opacity:0.06132076;stroke:none" />
    <path
       inkscape:connector-curvature="0"
       id="path6843"
       d="m 113.99065,943.54276 c 0.2501,0.86375 -0.22081,17.68589 -0.61652,18.7917 -0.39571,1.10581 -14.383464,7.07771 -14.383464,7.07771 l -14.134555,-11.04572 3.757144,-22.39941 17.542185,-9.59486 z"
       style="fill:#000000;fill-opacity:0.06132076;stroke:none" />
    <path
       inkscape:connector-curvature="0"
       id="path6845"
       d="m 73.862711,1003.5118 -20.126357,16.4557 0.03635,24.6602 9.241266,7.9525 8.379401,-3.5826 1.729407,-12.2854 -2.282043,-14.5382 6.450969,-8.5312 6.805547,-4.834 -2.960956,-9.2753 z"
       style="fill:#000000;fill-opacity:0.06132076;stroke:none" />
    <path
       style="fill:#000000;fill-opacity:0.06132076;stroke:none"
       d="m 98.130063,986.90341 c 0.250099,0.86375 -0.220805,17.68589 -0.616515,18.79169 -0.395709,1.1058 -14.383466,7.0777 -14.383466,7.0777 l -14.134554,-11.0457 3.757144,-22.39941 17.542184,-9.59487 z"
       id="path6847"
       inkscape:connector-curvature="0" />
    <path
       style="fill:#000000;fill-opacity:0.06132076;stroke:none"
       d="m 79.882261,1001.7588 -16.749438,-19.88253 -24.657015,0.39842 -7.816002,9.35703 3.705326,8.32588 12.309535,1.5488 14.50309,-2.4952 8.624935,6.325 4.933482,6.7338 9.230822,-3.0968 z"
       id="path6849"
       inkscape:connector-curvature="0" />
    <path
       inkscape:connector-curvature="0"
       id="path6851"
       d="m 109.08424,1040.0401 c -0.60325,0.6669 -15.1605,9.1104 -16.309191,9.3551 -1.148701,0.2448 -13.582593,-8.5142 -13.582593,-8.5142 l 1.964885,-17.8306 21.029229,-8.5803 17.38446,9.8778 z"
       style="fill:#000000;fill-opacity:0.06132076;stroke:none" />
    <path
       style="fill:#000000;fill-opacity:0.06132076;stroke:none"
       d="m 54.495149,988.19492 7.142581,21.76198 -15.041059,12.9758 -13.355053,-6.5803 -8.005121,-15.313 12.913899,-12.67763 z"
       id="path6853"
       inkscape:connector-curvature="0" />
    <path
       inkscape:connector-curvature="0"
       id="path6855"
       d="m 75.634478,981.96592 c -0.711521,0.54987 -16.530886,6.29041 -17.70475,6.32851 -1.173864,0.0381 -11.865831,-10.77864 -11.865831,-10.77864 l 5.082199,-17.2036 22.213857,-4.73244 15.367265,12.79207 z"
       style="fill:#000000;fill-opacity:0.06132076;stroke:none" />
    <path
       style="fill:#000000;fill-opacity:0.06132076;stroke:none"
       d="m 28.733835,970.73719 c -0.522061,0.6701 -13.028997,8.95392 -14.010993,9.17295 -0.981796,0.21902 -11.4742444,-9.17372 -11.4742444,-9.17372 l 1.88696,-18.32895 18.0241094,-8.23696 14.698214,10.69011 z"
       id="path6857"
       inkscape:connector-curvature="0" />
    <path
       style="fill:#000000;fill-opacity:0.06132076;stroke:none"
       d="m 80.71578,935.3361 c 0.702538,0.5613 10.021469,14.57428 10.3361,15.70583 0.31463,1.13156 -7.666623,14.07839 -7.666623,14.07839 l -17.917515,-0.86951 -9.851696,-20.46445 8.794871,-17.95661 z"
       id="path6859"
       inkscape:connector-curvature="0" />
    <path
       inkscape:connector-curvature="0"
       id="path6861"
       d="m 32.783917,942.8318 c 0.129535,-0.88985 7.515774,-16.01101 8.333407,-16.85415 0.817633,-0.84314 16.022886,-0.4951 16.022886,-0.4951 l 8.300565,15.90264 -12.684951,18.8399 -19.939856,1.48046 z"
       style="fill:#000000;fill-opacity:0.06132076;stroke:none" />
    <path
       style="fill:#000000;fill-opacity:0.06132076;stroke:none"
       d="m -8.7413221,1010.9621 14.1677247,0.818 12.2607714,10.9344 3.73908,16.1834 -6.222242,9.9611 -14.93273237,-0.9998 c 0,0 -23.86742663,-18.6045 -23.21773863,-19.5071 0.649752,-0.9025 0.955532,-13.6998 0.955532,-13.6998 z"
       id="path6863"
       inkscape:connector-curvature="0" />
    <path
       style="fill:#000000;fill-opacity:0.06132076;stroke:none"
       d="m 104.65214,1025.3411 c -0.89248,-0.1103 -16.169721,-7.1681 -17.030278,-7.9673 -0.860645,-0.7992 -0.841217,-16.0085 -0.841217,-16.0085 l 15.719515,-8.64222 19.10962,12.27492 1.91097,19.9032 z"
       id="path6867"
       inkscape:connector-curvature="0" />
    <path
       inkscape:connector-curvature="0"
       id="path6869"
       d="m 109.83458,977.82212 -7.91453,20.59492 9.21653,22.97636 9.41416,4.999 4.51334,-5.5278 -3.37182,-11.903 -7.01136,-12.95512 1.32298,-9.63675 2.9484,-6.28329 -5.52368,-7.87224 z"
       style="fill:#000000;fill-opacity:0.06132076;stroke:none" />
    <path
       style="fill:#000000;fill-opacity:0.06132076;stroke:none"
       d="m 14.072678,985.42663 -3.724572,13.69382 -13.2295233,9.73995 -16.6066597,0.3183 -8.462406,-8.1442 4.060346,-14.40481 c 0,0 23.13011134,-19.5136 23.87912709,-18.69157 0.74901626,0.82202 13.20761791,3.76254 13.20761791,3.76254 z"
       id="path6875"
       inkscape:connector-curvature="0" />
    <path
       inkscape:connector-curvature="0"
       id="path6877"
       d="M 0.55606875,978.45237 C 0.03218565,978.11415 -9.0464786,968.38351 -9.5665244,967.5291 -10.086484,966.67488 -10.400004,955.08708 -10.400004,955.08708 l 9.0018391,-2.11077 11.4296229,14.79866 1.541876,15.71554 z"
       style="fill:#000000;fill-opacity:0.06132076;stroke:none" />
    <path
       inkscape:connector-curvature="0"
       id="path6879"
       d="m -1.353217,938.87142 c 0.78285738,-0.1958 16.497553,0.72249 17.562519,1.10595 1.064981,0.38346 7.854633,12.95151 7.854633,12.95151 l -9.05305,12.19108 -21.1990455,-3.99535 -10.4766535,-15.82444 z"
       style="fill:#000000;fill-opacity:0.06132076;stroke:none" />
    <path
       style="fill:#000000;fill-opacity:0.06132076;stroke:none"
       d="m 25.437394,1017.834 c 0.0811,0.8456 -3.314494,15.4577 -3.8775,16.2916 -0.562867,0.8337 -14.6400476,1.2183 -14.6400476,1.2183 l -11.2224951,-14.6139 7.4364473,-18.3689 18.0244134,-2.3317 z"
       id="path6881"
       inkscape:connector-curvature="0" />
    <path
       style="fill:#000000;fill-opacity:0.06132076;stroke:none"
       d="m 29.617956,930.22159 c 0.113582,0.89203 -2.952039,17.43918 -3.513927,18.47053 -0.561887,1.03135 -15.304634,4.76919 -15.304634,4.76919 l -12.2572539,-13.0978 7.1745124,-21.54943 18.8145135,-6.76786 z"
       id="path6883"
       inkscape:connector-curvature="0" />
    <path
       inkscape:connector-curvature="0"
       id="path6885"
       d="m 52.690201,933.81509 c -0.496292,0.74987 -13.620696,11.28345 -14.719612,11.69791 -1.098927,0.41446 -14.707022,-6.37822 -14.707022,-6.37822 l -0.734696,-17.92355 19.50248,-11.64057 18.67053,7.15548 z"
       style="fill:#000000;fill-opacity:0.06132076;stroke:none" />
    <path
       style="fill:#000000;fill-opacity:0.06132076;stroke:none"
       d="m 88.087853,920.7523 -25.829547,-2.9487 -17.648642,17.2236 0.745114,12.16914 8.411284,3.50709 10.011014,-7.32813 8.828091,-11.7742 10.6131,-1.32608 8.210589,1.50641 4.582705,-8.59053 z"
       id="path6887"
       inkscape:connector-curvature="0" />
    <path
       style="fill:#000000;fill-opacity:0.06132076;stroke:none"
       d="m 110.48911,927.06255 c 0.29306,0.71494 -0.25874,14.63884 -0.72241,15.55413 -0.46368,0.91529 -16.853994,5.85831 -16.853994,5.85831 l -16.562322,-9.14268 4.402475,-18.54027 20.555251,-7.94179 z"
       id="path6889"
       inkscape:connector-curvature="0" />
    <path
       inkscape:connector-curvature="0"
       id="path6891"
       d="m 103.53752,914.25328 22.01817,6.30875 2.29187,19.732 -12.94381,7.35633 -17.166052,-1.97399 -3.239515,-17.80439 z"
       style="fill:#000000;fill-opacity:0.06132076;stroke:none"
       inkscape:transform-center-x="8.0695367"
       inkscape:transform-center-y="2.617147" />
    <path
       inkscape:connector-curvature="0"
       id="path6911"
       d="m 29.617956,1058.2216 c 0.113582,0.892 -2.952039,17.4392 -3.513927,18.4705 -0.561887,1.0314 -15.304634,4.7692 -15.304634,4.7692 l -12.2572539,-13.0978 7.1745124,-21.5494 18.8145135,-6.7679 z"
       style="fill:#000000;fill-opacity:0.06132076;stroke:none" />
    <path
       style="fill:#000000;fill-opacity:0.06132076;stroke:none"
       d="m 52.690201,1061.8151 c -0.496292,0.7499 -13.620696,11.2834 -14.719612,11.6979 -1.098927,0.4145 -14.707022,-6.3782 -14.707022,-6.3782 l -0.734696,-17.9236 19.50248,-11.6405 18.67053,7.1554 z"
       id="path6913"
       inkscape:connector-curvature="0" />
    <path
       inkscape:connector-curvature="0"
       id="path6915"
       d="m 88.087853,1048.7523 -25.829547,-2.9487 -17.648642,17.2236 0.745114,12.1691 8.411284,3.5071 10.011014,-7.3281 8.828091,-11.7742 10.6131,-1.3261 8.210589,1.5064 4.582705,-8.5905 z"
       style="fill:#000000;fill-opacity:0.06132076;stroke:none" />
    <path
       inkscape:connector-curvature="0"
       id="path6917"
       d="m 110.48911,1055.0626 c 0.29306,0.7149 -0.25874,14.6388 -0.72241,15.5541 -0.46368,0.9153 -16.853994,5.8583 -16.853994,5.8583 l -16.562322,-9.1427 4.402475,-18.5403 20.555251,-7.9417 z"
       style="fill:#000000;fill-opacity:0.06132076;stroke:none" />
    <path
       inkscape:transform-center-y="2.617147"
       inkscape:transform-center-x="8.0695367"
       style="fill:#000000;fill-opacity:0.06132076;stroke:none"
       d="m 103.53752,1042.2533 22.01817,6.3087 2.29187,19.732 -12.94381,7.3564 -17.166052,-1.974 -3.239515,-17.8044 z"
       id="path6919"
       inkscape:connector-curvature="0" />
    <path
       inkscape:connector-curvature="0"
       id="path6921"
       d="m 119.25868,1010.9621 14.16772,0.818 12.26077,10.9344 3.73908,16.1834 -6.22224,9.9611 -14.93273,-0.9998 c 0,0 -23.86743,-18.6045 -23.21774,-19.5071 0.64975,-0.9025 0.95553,-13.6998 0.95553,-13.6998 z"
       style="fill:#000000;fill-opacity:0.06132076;stroke:none" />
    <path
       inkscape:connector-curvature="0"
       id="path6923"
       d="m 142.07268,985.42663 -3.72457,13.69382 -13.22953,9.73995 -16.60666,0.3183 -8.4624,-8.1442 4.06034,-14.40481 c 0,0 23.13011,-19.5136 23.87913,-18.69157 0.74902,0.82202 13.20762,3.76254 13.20762,3.76254 z"
       style="fill:#000000;fill-opacity:0.06132076;stroke:none" />
    <path
       style="fill:#000000;fill-opacity:0.06132076;stroke:none"
       d="M 128.55607,978.45237 C 128.03219,978.11415 118.95352,968.38351 118.43348,967.5291 117.91352,966.67488 117.6,955.08708 117.6,955.08708 l 9.00184,-2.11077 11.42962,14.79866 1.54187,15.71554 z"
       id="path6925"
       inkscape:connector-curvature="0" />
    <path
       style="fill:#000000;fill-opacity:0.06132076;stroke:none"
       d="m 126.64678,938.87142 c 0.78286,-0.1958 16.49756,0.72249 17.56252,1.10595 1.06498,0.38346 7.85464,12.95151 7.85464,12.95151 l -9.05306,12.19108 -21.19904,-3.99535 -10.47665,-15.82444 z"
       id="path6927"
       inkscape:connector-curvature="0" />
    <path
       inkscape:connector-curvature="0"
       id="path6929"
       d="m 41.861402,933.2519 c 0.250099,0.86375 -0.220805,17.68589 -0.616515,18.79169 -0.395709,1.1058 -14.383466,7.0777 -14.383466,7.0777 l -14.134554,-11.0457 3.757144,-22.39941 17.542184,-9.59487 z"
       style="fill:#000000;fill-opacity:0.06132076;stroke:none" />
    <path
       style="fill:#000000;fill-opacity:0.06132076;stroke:none"
       d="m 41.8614,1061.2519 c 0.2501,0.8638 -0.2208,17.6859 -0.61651,18.7917 -0.39571,1.1058 -14.38347,7.0777 -14.38347,7.0777 l -14.13455,-11.0457 3.75714,-22.3994 17.54218,-9.5949 z"
       id="path6931"
       inkscape:connector-curvature="0" />
    <path
       style="fill:#000000;fill-opacity:0.06132076;stroke:none"
       d="m 72.117946,911.47546 -20.126357,16.4557 0.03635,24.6602 9.241266,7.9525 8.379401,-3.5826 1.729407,-12.2854 -2.282043,-14.5382 6.450969,-8.5312 6.805547,-4.834 -2.960956,-9.2753 z"
       id="path6933"
       inkscape:connector-curvature="0" />
    <path
       inkscape:connector-curvature="0"
       id="path6935"
       d="m 72.117946,1039.4755 -20.126357,16.4557 0.03635,24.6602 9.241266,7.9525 8.379401,-3.5826 1.729407,-12.2854 -2.282043,-14.5382 6.450969,-8.5312 6.805547,-4.834 -2.960956,-9.2753 z"
       style="fill:#000000;fill-opacity:0.06132076;stroke:none" />
  </g>
</svg>
