<?xml version="1.0" encoding="UTF-8" standalone="no"?>
<!-- Created with Inkscape (http://www.inkscape.org/) -->

<svg
   xmlns:dc="http://purl.org/dc/elements/1.1/"
   xmlns:cc="http://creativecommons.org/ns#"
   xmlns:rdf="http://www.w3.org/1999/02/22-rdf-syntax-ns#"
   xmlns:svg="http://www.w3.org/2000/svg"
   xmlns="http://www.w3.org/2000/svg"
   xmlns:sodipodi="http://sodipodi.sourceforge.net/DTD/sodipodi-0.dtd"
   xmlns:inkscape="http://www.inkscape.org/namespaces/inkscape"
   width="64"
   height="64"
   id="svg2"
   version="1.1"
   inkscape:version="0.48.4 r9939"
   sodipodi:docname="wood.svg"
   inkscape:export-filename="C:\Users\Michiel\LD28\textures\wood.png"
   inkscape:export-xdpi="90"
   inkscape:export-ydpi="90">
  <defs
     id="defs4">
    <filter
       inkscape:collect="always"
       id="filter3869"
       x="-0.066190295"
       width="1.1323806"
       y="-0.10009926"
       height="1.2001985">
      <feGaussianBlur
         inkscape:collect="always"
         stdDeviation="0.78471386"
         id="feGaussianBlur3871" />
    </filter>
    <filter
       inkscape:collect="always"
       id="filter3883"
       x="-0.10507467"
       width="1.2101493"
       y="-0.064180744"
       height="1.1283615">
      <feGaussianBlur
         inkscape:collect="always"
         stdDeviation="0.3814759"
         id="feGaussianBlur3885" />
    </filter>
  </defs>
  <sodipodi:namedview
     id="base"
     pagecolor="#ffffff"
     bordercolor="#666666"
     borderopacity="1.0"
     inkscape:pageopacity="0.0"
     inkscape:pageshadow="2"
     inkscape:zoom="12.96875"
     inkscape:cx="32"
     inkscape:cy="32"
     inkscape:document-units="px"
     inkscape:current-layer="layer1"
     showgrid="false"
     inkscape:snap-smooth-nodes="false"
     inkscape:object-nodes="false"
     inkscape:window-width="1920"
     inkscape:window-height="1017"
     inkscape:window-x="-8"
     inkscape:window-y="-8"
     inkscape:window-maximized="1" />
  <metadata
     id="metadata7">
    <rdf:RDF>
      <cc:Work
         rdf:about="">
        <dc:format>image/svg+xml</dc:format>
        <dc:type
           rdf:resource="http://purl.org/dc/dcmitype/StillImage" />
        <dc:title></dc:title>
      </cc:Work>
    </rdf:RDF>
  </metadata>
  <g
     inkscape:label="Laag 1"
     inkscape:groupmode="layer"
     id="layer1"
     transform="translate(0,-988.36218)">
    <g
       transform="translate(-13.108434,8.4819278)"
       id="g3807">
      <path
         style="fill:#502d16;fill-opacity:1;stroke:#d38d5f;stroke-width:0;stroke-linecap:round;stroke-linejoin:round;stroke-miterlimit:4;stroke-opacity:1"
         d="m 54.070797,997.59305 c -3.239131,-3.67318 -8.809186,-4.02295 -12.482367,-0.78382 l -6.703736,4.76657 -4.73556,5.4126 -6.131002,4.2403 -3.899348,4.5132 11.719222,13.2896 5.746685,-4.0723 5.59204,-5.5261 5.87962,-4.2857 4.251302,-5.0486 c 3.154484,-3.7461 4.002274,-8.8326 0.763144,-12.50575 z"
         id="path3809"
         inkscape:connector-curvature="0"
         sodipodi:nodetypes="ssccccccccss" />
      <path
         sodipodi:type="arc"
         style="fill:#784421;fill-opacity:1;stroke:#d38d5f;stroke-width:0;stroke-linecap:round;stroke-linejoin:round;stroke-miterlimit:4;stroke-opacity:1;stroke-dasharray:none"
         id="path3811"
         sodipodi:cx="28.144579"
         sodipodi:cy="27.06506"
         sodipodi:rx="8.8674698"
         sodipodi:ry="8.8674698"
         d="m 37.012049,27.06506 c 0,4.897368 -3.970102,8.867469 -8.86747,8.867469 -4.897368,0 -8.86747,-3.970101 -8.86747,-8.867469 0,-4.897369 3.970102,-8.86747 8.86747,-8.86747 4.897368,0 8.86747,3.970101 8.86747,8.86747 z"
         transform="matrix(0.66140231,0.75003133,-0.75003133,0.66140231,27.6634,983.37289)" />
      <path
         transform="matrix(0.58663601,0.66524621,-0.66524621,0.58663601,27.304592,987.60675)"
         d="m 37.012049,27.06506 c 0,4.897368 -3.970102,8.867469 -8.86747,8.867469 -4.897368,0 -8.86747,-3.970101 -8.86747,-8.867469 0,-4.897369 3.970102,-8.86747 8.86747,-8.86747 4.897368,0 8.86747,3.970101 8.86747,8.86747 z"
         sodipodi:ry="8.8674698"
         sodipodi:rx="8.8674698"
         sodipodi:cy="27.06506"
         sodipodi:cx="28.144579"
         id="path3813"
         style="fill:#a05a2c;fill-opacity:1;stroke:#d38d5f;stroke-width:0;stroke-linecap:round;stroke-linejoin:round;stroke-miterlimit:4;stroke-opacity:1;stroke-dasharray:none"
         sodipodi:type="arc" />
      <path
         sodipodi:type="arc"
         style="fill:#784421;fill-opacity:1;stroke:#d38d5f;stroke-width:0;stroke-linecap:round;stroke-linejoin:round;stroke-miterlimit:4;stroke-opacity:1;stroke-dasharray:none"
         id="path3815"
         sodipodi:cx="28.144579"
         sodipodi:cy="27.06506"
         sodipodi:rx="8.8674698"
         sodipodi:ry="8.8674698"
         d="m 37.012049,27.06506 c 0,4.897368 -3.970102,8.867469 -8.86747,8.867469 -4.897368,0 -8.86747,-3.970101 -8.86747,-8.867469 0,-4.897369 3.970102,-8.86747 8.86747,-8.86747 4.897368,0 8.86747,3.970101 8.86747,8.86747 z"
         transform="matrix(0.52337221,0.59350496,-0.59350496,0.52337221,26.835009,991.10679)" />
      <path
         transform="matrix(0.45435716,0.51524177,-0.51524177,0.45435716,26.813428,995.25448)"
         d="m 37.012049,27.06506 c 0,4.897368 -3.970102,8.867469 -8.86747,8.867469 -4.897368,0 -8.86747,-3.970101 -8.86747,-8.867469 0,-4.897369 3.970102,-8.86747 8.86747,-8.86747 4.897368,0 8.86747,3.970101 8.86747,8.86747 z"
         sodipodi:ry="8.8674698"
         sodipodi:rx="8.8674698"
         sodipodi:cy="27.06506"
         sodipodi:cx="28.144579"
         id="path3817"
         style="fill:#a05a2c;fill-opacity:1;stroke:#d38d5f;stroke-width:0;stroke-linecap:round;stroke-linejoin:round;stroke-miterlimit:4;stroke-opacity:1;stroke-dasharray:none"
         sodipodi:type="arc" />
      <path
         transform="matrix(0.3912028,0.44362463,-0.44362463,0.3912028,26.825484,999.06585)"
         d="m 37.012049,27.06506 c 0,4.897368 -3.970102,8.867469 -8.86747,8.867469 -4.897368,0 -8.86747,-3.970101 -8.86747,-8.867469 0,-4.897369 3.970102,-8.86747 8.86747,-8.86747 4.897368,0 8.86747,3.970101 8.86747,8.86747 z"
         sodipodi:ry="8.8674698"
         sodipodi:rx="8.8674698"
         sodipodi:cy="27.06506"
         sodipodi:cx="28.144579"
         id="path3819"
         style="fill:#784421;fill-opacity:1;stroke:#d38d5f;stroke-width:0;stroke-linecap:round;stroke-linejoin:round;stroke-miterlimit:4;stroke-opacity:1;stroke-dasharray:none"
         sodipodi:type="arc" />
      <path
         sodipodi:type="arc"
         style="fill:#a05a2c;fill-opacity:1;stroke:#d38d5f;stroke-width:0;stroke-linecap:round;stroke-linejoin:round;stroke-miterlimit:4;stroke-opacity:1;stroke-dasharray:none"
         id="path3821"
         sodipodi:cx="28.144579"
         sodipodi:cy="27.06506"
         sodipodi:rx="8.8674698"
         sodipodi:ry="8.8674698"
         d="m 37.012049,27.06506 c 0,4.897368 -3.970102,8.867469 -8.86747,8.867469 -4.897368,0 -8.86747,-3.970101 -8.86747,-8.867469 0,-4.897369 3.970102,-8.86747 8.86747,-8.86747 4.897368,0 8.86747,3.970101 8.86747,8.86747 z"
         transform="matrix(0.318121,0.36074974,-0.36074974,0.318121,26.193782,1002.9627)" />
      <path
         sodipodi:type="arc"
         style="fill:#784421;fill-opacity:1;stroke:#d38d5f;stroke-width:0;stroke-linecap:round;stroke-linejoin:round;stroke-miterlimit:4;stroke-opacity:1;stroke-dasharray:none"
         id="path3823"
         sodipodi:cx="28.144579"
         sodipodi:cy="27.06506"
         sodipodi:rx="8.8674698"
         sodipodi:ry="8.8674698"
         d="m 37.012049,27.06506 c 0,4.897368 -3.970102,8.867469 -8.86747,8.867469 -4.897368,0 -8.86747,-3.970101 -8.86747,-8.867469 0,-4.897369 3.970102,-8.86747 8.86747,-8.86747 4.897368,0 8.86747,3.970101 8.86747,8.86747 z"
         transform="matrix(0.25496665,0.2891326,-0.2891326,0.25496665,26.314886,1006.8014)" />
      <path
         transform="matrix(0.17781809,0.20164601,-0.20164601,0.17781809,25.400205,1011.7014)"
         d="m 37.012049,27.06506 c 0,4.897368 -3.970102,8.867469 -8.86747,8.867469 -4.897368,0 -8.86747,-3.970101 -8.86747,-8.867469 0,-4.897369 3.970102,-8.86747 8.86747,-8.86747 4.897368,0 8.86747,3.970101 8.86747,8.86747 z"
         sodipodi:ry="8.8674698"
         sodipodi:rx="8.8674698"
         sodipodi:cy="27.06506"
         sodipodi:cx="28.144579"
         id="path3825"
         style="fill:#a05a2c;fill-opacity:1;stroke:#d38d5f;stroke-width:0;stroke-linecap:round;stroke-linejoin:round;stroke-miterlimit:4;stroke-opacity:1;stroke-dasharray:none"
         sodipodi:type="arc" />
      <path
         transform="matrix(0.11873049,0.13464057,-0.13464057,0.11873049,25.613454,1014.9731)"
         d="m 37.012049,27.06506 c 0,4.897368 -3.970102,8.867469 -8.86747,8.867469 -4.897368,0 -8.86747,-3.970101 -8.86747,-8.867469 0,-4.897369 3.970102,-8.86747 8.86747,-8.86747 4.897368,0 8.86747,3.970101 8.86747,8.86747 z"
         sodipodi:ry="8.8674698"
         sodipodi:rx="8.8674698"
         sodipodi:cy="27.06506"
         sodipodi:cx="28.144579"
         id="path3827"
         style="fill:#784421;fill-opacity:1;stroke:#d38d5f;stroke-width:0;stroke-linecap:round;stroke-linejoin:round;stroke-miterlimit:4;stroke-opacity:1;stroke-dasharray:none"
         sodipodi:type="arc" />
      <path
         sodipodi:type="arc"
         style="fill:#a05a2c;fill-opacity:1;stroke:#d38d5f;stroke-width:0;stroke-linecap:round;stroke-linejoin:round;stroke-miterlimit:4;stroke-opacity:1;stroke-dasharray:none"
         id="path3829"
         sodipodi:cx="28.144579"
         sodipodi:cy="27.06506"
         sodipodi:rx="8.8674698"
         sodipodi:ry="8.8674698"
         d="m 37.012049,27.06506 c 0,4.897368 -3.970102,8.867469 -8.86747,8.867469 -4.897368,0 -8.86747,-3.970101 -8.86747,-8.867469 0,-4.897369 3.970102,-8.86747 8.86747,-8.86747 4.897368,0 8.86747,3.970101 8.86747,8.86747 z"
         transform="matrix(0.09038294,0.10249441,-0.10249441,0.09038294,25.395582,1016.6948)" />
      <path
         sodipodi:type="inkscape:offset"
         inkscape:radius="0.39337406"
         inkscape:original="M 55.6875 14.75 L 55.1875 15 C 55.116561 15.174142 55.039389 15.341147 54.9375 15.5 C 54.699551 15.90144 54.448577 16.312514 54.21875 16.71875 C 53.904175 17.24174 53.585632 17.753218 53.1875 18.21875 C 52.998611 18.438301 52.927677 18.546916 52.71875 18.75 C 52.385266 19.074157 52.018465 19.347489 51.625 19.59375 C 51.459766 19.69601 51.290792 19.804907 51.125 19.90625 C 51.064186 19.941216 50.998819 19.989048 51.03125 19.96875 C 50.839861 20.076134 50.630465 20.176707 50.4375 20.28125 C 50.087885 20.469317 49.748037 20.673582 49.375 20.8125 C 49.225538 20.8567 49.218773 20.84725 49.0625 20.875 C 48.759356 20.928826 48.42798 20.94456 48.125 21 C 47.510149 21.08459 46.89392 21.18147 46.28125 21.28125 C 45.993709 21.333122 45.720168 21.36262 45.4375 21.4375 C 45.22639 21.493424 45.114245 21.52807 44.90625 21.59375 C 44.81788 21.62166 44.74465 21.65968 44.65625 21.6875 C 44.291911 21.817382 43.903783 21.940298 43.5625 22.125 C 43.320688 22.255867 43.082389 22.394684 42.84375 22.53125 C 42.758505 22.580034 42.67818 22.63733 42.59375 22.6875 C 42.168471 22.955262 41.754691 23.242007 41.34375 23.53125 C 40.962507 23.801254 40.567568 24.063313 40.21875 24.375 C 40.052801 24.536325 40.028317 24.575743 39.875 24.75 C 39.651985 25.003476 39.447459 25.289415 39.25 25.5625 C 38.964973 25.962343 38.696744 26.364021 38.4375 26.78125 C 38.18905 27.161834 37.94878 27.545373 37.71875 27.9375 C 37.494466 28.317775 37.286835 28.713525 37.0625 29.09375 C 36.821837 29.48814 36.571063 29.86711 36.3125 30.25 C 36.059996 30.617814 35.823681 30.982002 35.5625 31.34375 C 35.406193 31.547329 35.224043 31.766628 35.03125 31.9375 L 35.5625 31.71875 C 35.746321 31.547438 35.913149 31.326208 36.0625 31.125 C 36.315648 30.760461 36.560945 30.396912 36.8125 30.03125 C 37.07047 29.647083 37.322767 29.270837 37.5625 28.875 C 37.719396 28.623275 37.824978 28.352776 37.96875 28.09375 C 38.041549 27.962593 38.11095 27.847749 38.1875 27.71875 C 38.417265 27.327902 38.690044 26.942258 38.9375 26.5625 C 39.195533 26.145931 39.465223 25.742304 39.75 25.34375 C 39.945952 25.070319 40.118872 24.782306 40.34375 24.53125 C 40.502116 24.354449 40.547078 24.319598 40.71875 24.15625 C 40.782664 24.101429 40.84037 24.05244 40.90625 24 C 40.970866 23.948568 41.05839 23.89258 41.125 23.84375 C 41.368958 23.664932 41.596447 23.517908 41.84375 23.34375 C 42.251216 23.056306 42.671374 22.765107 43.09375 22.5 C 43.113592 22.488313 43.136642 22.480868 43.15625 22.46875 C 43.253715 22.451198 43.34757 22.38523 43.4375 22.34375 C 43.699416 22.222954 43.947644 22.12882 44.21875 22.03125 C 44.569205 21.917459 44.92233 21.80335 45.28125 21.71875 C 45.525722 21.66113 45.626242 21.6405 45.875 21.59375 C 46.486096 21.489942 47.10439 21.42498 47.71875 21.34375 C 48.074193 21.276681 48.428209 21.26794 48.78125 21.1875 C 48.835467 21.17515 48.88378 21.13935 48.9375 21.125 C 49.319052 20.994912 49.678118 20.785014 50.03125 20.59375 C 50.730007 20.209587 51.416888 19.827901 52.09375 19.40625 C 52.487392 19.159529 52.857111 18.890233 53.1875 18.5625 C 53.388621 18.362996 53.504664 18.245926 53.6875 18.03125 C 54.088429 17.561177 54.399555 17.026287 54.71875 16.5 C 54.949471 16.089554 55.19327 15.683638 55.4375 15.28125 C 55.544173 15.120057 55.61559 14.928506 55.6875 14.75 z "
         style="fill:#784421;fill-opacity:1;stroke:#d38d5f;stroke-width:0;stroke-linecap:round;stroke-linejoin:round;stroke-miterlimit:4;stroke-opacity:1;stroke-dasharray:none"
         id="path3831"
         d="M 55.65625,14.34375 A 0.39341339,0.39341339 0 0 0 55.5,14.40625 l -0.5,0.25 a 0.39341339,0.39341339 0 0 0 -0.1875,0.1875 c -0.06649,0.163209 -0.135772,0.30813 -0.21875,0.4375 a 0.39341339,0.39341339 0 0 0 0,0.03125 c -0.236146,0.398398 -0.48449,0.804678 -0.71875,1.21875 -0.312508,0.519553 -0.627008,1.001364 -1,1.4375 -0.198967,0.231265 -0.24693,0.314759 -0.4375,0.5 -0.309358,0.300706 -0.655549,0.546107 -1.03125,0.78125 -0.161836,0.100157 -0.314988,0.218051 -0.46875,0.3125 -0.0072,0.0044 -0.02405,-0.0044 -0.03125,0 -0.0042,0.0025 0.004,0.02879 0,0.03125 -0.01995,0.01229 -0.04663,0.02054 -0.0625,0.03125 -0.0063,0.0043 -0.02555,-0.0039 -0.03125,0 -0.0057,0.0039 0.0038,0.02888 0,0.03125 -0.01873,0.0103 -0.04317,0.0209 -0.0625,0.03125 -0.154649,0.08282 -0.329361,0.157552 -0.5,0.25 -0.360606,0.193979 -0.671922,0.377825 -1,0.5 -0.131745,0.03896 -0.07667,0.03172 -0.25,0.0625 -0.267551,0.04751 -0.597528,0.06279 -0.9375,0.125 -0.619869,0.08528 -1.229648,0.181237 -1.84375,0.28125 -0.270287,0.04876 -0.556327,0.07183 -0.875,0.15625 -0.216651,0.05739 -0.353667,0.09031 -0.5625,0.15625 -0.126689,0.04001 -0.200155,0.07806 -0.25,0.09375 -0.355047,0.12657 -0.76942,0.259398 -1.15625,0.46875 -0.249079,0.1348 -0.481868,0.27069 -0.71875,0.40625 -0.108029,0.06182 -0.184446,0.117297 -0.25,0.15625 a 0.39341339,0.39341339 0 0 0 -0.03125,0 c -0.435078,0.273932 -0.83749,0.584653 -1.25,0.875 -0.374647,0.265332 -0.779115,0.53801 -1.15625,0.875 a 0.39341339,0.39341339 0 0 0 -0.03125,0 c -0.175046,0.170169 -0.196147,0.238487 -0.34375,0.40625 -0.24114,0.274077 -0.459614,0.571803 -0.65625,0.84375 -0.289598,0.406255 -0.580043,0.794338 -0.84375,1.21875 -0.25112,0.384674 -0.484874,0.788816 -0.71875,1.1875 -0.226263,0.383631 -0.443474,0.762647 -0.65625,1.125 -0.0044,0.0076 0.0044,0.02371 0,0.03125 -0.231581,0.378314 -0.466555,0.75154 -0.71875,1.125 -0.251281,0.366033 -0.501893,0.717492 -0.75,1.0625 -0.0049,0.0068 0.0049,0.02442 0,0.03125 -0.145926,0.188766 -0.314184,0.394259 -0.46875,0.53125 a 0.39341339,0.39341339 0 0 0 0.40625,0.65625 l 0.53125,-0.21875 A 0.39341339,0.39341339 0 0 0 35.84375,32 c 0.220549,-0.20554 0.380589,-0.422027 0.53125,-0.625 a 0.39341339,0.39341339 0 0 0 0,-0.03125 c 0.255131,-0.367395 0.499771,-0.730015 0.75,-1.09375 0.258063,-0.384305 0.535383,-0.750284 0.78125,-1.15625 0.181906,-0.291851 0.279215,-0.583628 0.40625,-0.8125 0.0686,-0.123597 0.14124,-0.244384 0.21875,-0.375 0.218122,-0.371042 0.496857,-0.736515 0.75,-1.125 0.25332,-0.40896 0.501212,-0.826828 0.78125,-1.21875 0.208311,-0.290676 0.370515,-0.566916 0.5625,-0.78125 0.137729,-0.153761 0.204693,-0.181233 0.34375,-0.3125 0.01322,-0.01248 0.01595,-0.01669 0.03125,-0.03125 0.04922,-0.04199 0.107025,-0.08582 0.15625,-0.125 0.03803,-0.03027 0.104009,-0.09504 0.1875,-0.15625 0.232835,-0.170665 0.463808,-0.320462 0.71875,-0.5 0.398511,-0.281127 0.813894,-0.557465 1.21875,-0.8125 l 0.03125,0 c 0.0015,0.0013 0.0096,0.0015 0.0625,-0.03125 l -0.03125,-0.03125 c 0.09973,-0.04129 0.223456,-0.08151 0.25,-0.09375 0.246659,-0.11376 0.48276,-0.185071 0.75,-0.28125 0.350102,-0.113676 0.693132,-0.232803 1.03125,-0.3125 0.241443,-0.05691 0.315482,-0.07858 0.5625,-0.125 0.594619,-0.101009 1.222408,-0.167847 1.84375,-0.25 0.314797,-0.0594 0.69119,-0.06453 1.09375,-0.15625 0.165387,-0.03767 0.203317,-0.07507 0.15625,-0.0625 a 0.39341339,0.39341339 0 0 0 0.03125,0 c 0.432534,-0.14747 0.810903,-0.375453 1.15625,-0.5625 0.69978,-0.384726 1.405941,-0.759029 2.09375,-1.1875 0.408868,-0.256264 0.798181,-0.55106 1.15625,-0.90625 0.202036,-0.200411 0.340914,-0.339018 0.53125,-0.5625 0.431336,-0.505723 0.745815,-1.040352 1.0625,-1.5625 a 0.39341339,0.39341339 0 0 0 0,-0.03125 c 0.227004,-0.403833 0.475156,-0.786159 0.71875,-1.1875 l -0.03125,0 c 0.141231,-0.213414 0.243305,-0.421983 0.3125,-0.59375 a 0.39341339,0.39341339 0 0 0 -0.40625,-0.5625 z"
         transform="matrix(0.94606901,0,0,0.94606901,2.6401159,991.3558)" />
      <path
         transform="matrix(0.94606901,0,0,0.94606901,1.3292725,985.72689)"
         d="M 55.65625,14.34375 A 0.39341339,0.39341339 0 0 0 55.5,14.40625 l -0.5,0.25 a 0.39341339,0.39341339 0 0 0 -0.1875,0.1875 c -0.06649,0.163209 -0.135772,0.30813 -0.21875,0.4375 a 0.39341339,0.39341339 0 0 0 0,0.03125 c -0.236146,0.398398 -0.48449,0.804678 -0.71875,1.21875 -0.312508,0.519553 -0.627008,1.001364 -1,1.4375 -0.198967,0.231265 -0.24693,0.314759 -0.4375,0.5 -0.309358,0.300706 -0.655549,0.546107 -1.03125,0.78125 -0.161836,0.100157 -0.314988,0.218051 -0.46875,0.3125 -0.0072,0.0044 -0.02405,-0.0044 -0.03125,0 -0.0042,0.0025 0.004,0.02879 0,0.03125 -0.01995,0.01229 -0.04663,0.02054 -0.0625,0.03125 -0.0063,0.0043 -0.02555,-0.0039 -0.03125,0 -0.0057,0.0039 0.0038,0.02888 0,0.03125 -0.01873,0.0103 -0.04317,0.0209 -0.0625,0.03125 -0.154649,0.08282 -0.329361,0.157552 -0.5,0.25 -0.360606,0.193979 -0.671922,0.377825 -1,0.5 -0.131745,0.03896 -0.07667,0.03172 -0.25,0.0625 -0.267551,0.04751 -0.597528,0.06279 -0.9375,0.125 -0.619869,0.08528 -1.229648,0.181237 -1.84375,0.28125 -0.270287,0.04876 -0.556327,0.07183 -0.875,0.15625 -0.216651,0.05739 -0.353667,0.09031 -0.5625,0.15625 -0.126689,0.04001 -0.200155,0.07806 -0.25,0.09375 -0.355047,0.12657 -0.76942,0.259398 -1.15625,0.46875 -0.249079,0.1348 -0.481868,0.27069 -0.71875,0.40625 -0.108029,0.06182 -0.184446,0.117297 -0.25,0.15625 a 0.39341339,0.39341339 0 0 0 -0.03125,0 c -0.435078,0.273932 -0.83749,0.584653 -1.25,0.875 -0.374647,0.265332 -0.779115,0.53801 -1.15625,0.875 a 0.39341339,0.39341339 0 0 0 -0.03125,0 c -0.175046,0.170169 -0.196147,0.238487 -0.34375,0.40625 -0.24114,0.274077 -0.459614,0.571803 -0.65625,0.84375 -0.289598,0.406255 -0.580043,0.794338 -0.84375,1.21875 -0.25112,0.384674 -0.484874,0.788816 -0.71875,1.1875 -0.226263,0.383631 -0.443474,0.762647 -0.65625,1.125 -0.0044,0.0076 0.0044,0.02371 0,0.03125 -0.231581,0.378314 -0.466555,0.75154 -0.71875,1.125 -0.251281,0.366033 -0.501893,0.717492 -0.75,1.0625 -0.0049,0.0068 0.0049,0.02442 0,0.03125 -0.145926,0.188766 -0.314184,0.394259 -0.46875,0.53125 a 0.39341339,0.39341339 0 0 0 0.40625,0.65625 l 0.53125,-0.21875 A 0.39341339,0.39341339 0 0 0 35.84375,32 c 0.220549,-0.20554 0.380589,-0.422027 0.53125,-0.625 a 0.39341339,0.39341339 0 0 0 0,-0.03125 c 0.255131,-0.367395 0.499771,-0.730015 0.75,-1.09375 0.258063,-0.384305 0.535383,-0.750284 0.78125,-1.15625 0.181906,-0.291851 0.279215,-0.583628 0.40625,-0.8125 0.0686,-0.123597 0.14124,-0.244384 0.21875,-0.375 0.218122,-0.371042 0.496857,-0.736515 0.75,-1.125 0.25332,-0.40896 0.501212,-0.826828 0.78125,-1.21875 0.208311,-0.290676 0.370515,-0.566916 0.5625,-0.78125 0.137729,-0.153761 0.204693,-0.181233 0.34375,-0.3125 0.01322,-0.01248 0.01595,-0.01669 0.03125,-0.03125 0.04922,-0.04199 0.107025,-0.08582 0.15625,-0.125 0.03803,-0.03027 0.104009,-0.09504 0.1875,-0.15625 0.232835,-0.170665 0.463808,-0.320462 0.71875,-0.5 0.398511,-0.281127 0.813894,-0.557465 1.21875,-0.8125 l 0.03125,0 c 0.0015,0.0013 0.0096,0.0015 0.0625,-0.03125 l -0.03125,-0.03125 c 0.09973,-0.04129 0.223456,-0.08151 0.25,-0.09375 0.246659,-0.11376 0.48276,-0.185071 0.75,-0.28125 0.350102,-0.113676 0.693132,-0.232803 1.03125,-0.3125 0.241443,-0.05691 0.315482,-0.07858 0.5625,-0.125 0.594619,-0.101009 1.222408,-0.167847 1.84375,-0.25 0.314797,-0.0594 0.69119,-0.06453 1.09375,-0.15625 0.165387,-0.03767 0.203317,-0.07507 0.15625,-0.0625 a 0.39341339,0.39341339 0 0 0 0.03125,0 c 0.432534,-0.14747 0.810903,-0.375453 1.15625,-0.5625 0.69978,-0.384726 1.405941,-0.759029 2.09375,-1.1875 0.408868,-0.256264 0.798181,-0.55106 1.15625,-0.90625 0.202036,-0.200411 0.340914,-0.339018 0.53125,-0.5625 0.431336,-0.505723 0.745815,-1.040352 1.0625,-1.5625 a 0.39341339,0.39341339 0 0 0 0,-0.03125 c 0.227004,-0.403833 0.475156,-0.786159 0.71875,-1.1875 l -0.03125,0 c 0.141231,-0.213414 0.243305,-0.421983 0.3125,-0.59375 a 0.39341339,0.39341339 0 0 0 -0.40625,-0.5625 z"
         id="path3833"
         style="fill:#784421;fill-opacity:1;stroke:#d38d5f;stroke-width:0;stroke-linecap:round;stroke-linejoin:round;stroke-miterlimit:4;stroke-opacity:1;stroke-dasharray:none"
         inkscape:original="M 55.6875 14.75 L 55.1875 15 C 55.116561 15.174142 55.039389 15.341147 54.9375 15.5 C 54.699551 15.90144 54.448577 16.312514 54.21875 16.71875 C 53.904175 17.24174 53.585632 17.753218 53.1875 18.21875 C 52.998611 18.438301 52.927677 18.546916 52.71875 18.75 C 52.385266 19.074157 52.018465 19.347489 51.625 19.59375 C 51.459766 19.69601 51.290792 19.804907 51.125 19.90625 C 51.064186 19.941216 50.998819 19.989048 51.03125 19.96875 C 50.839861 20.076134 50.630465 20.176707 50.4375 20.28125 C 50.087885 20.469317 49.748037 20.673582 49.375 20.8125 C 49.225538 20.8567 49.218773 20.84725 49.0625 20.875 C 48.759356 20.928826 48.42798 20.94456 48.125 21 C 47.510149 21.08459 46.89392 21.18147 46.28125 21.28125 C 45.993709 21.333122 45.720168 21.36262 45.4375 21.4375 C 45.22639 21.493424 45.114245 21.52807 44.90625 21.59375 C 44.81788 21.62166 44.74465 21.65968 44.65625 21.6875 C 44.291911 21.817382 43.903783 21.940298 43.5625 22.125 C 43.320688 22.255867 43.082389 22.394684 42.84375 22.53125 C 42.758505 22.580034 42.67818 22.63733 42.59375 22.6875 C 42.168471 22.955262 41.754691 23.242007 41.34375 23.53125 C 40.962507 23.801254 40.567568 24.063313 40.21875 24.375 C 40.052801 24.536325 40.028317 24.575743 39.875 24.75 C 39.651985 25.003476 39.447459 25.289415 39.25 25.5625 C 38.964973 25.962343 38.696744 26.364021 38.4375 26.78125 C 38.18905 27.161834 37.94878 27.545373 37.71875 27.9375 C 37.494466 28.317775 37.286835 28.713525 37.0625 29.09375 C 36.821837 29.48814 36.571063 29.86711 36.3125 30.25 C 36.059996 30.617814 35.823681 30.982002 35.5625 31.34375 C 35.406193 31.547329 35.224043 31.766628 35.03125 31.9375 L 35.5625 31.71875 C 35.746321 31.547438 35.913149 31.326208 36.0625 31.125 C 36.315648 30.760461 36.560945 30.396912 36.8125 30.03125 C 37.07047 29.647083 37.322767 29.270837 37.5625 28.875 C 37.719396 28.623275 37.824978 28.352776 37.96875 28.09375 C 38.041549 27.962593 38.11095 27.847749 38.1875 27.71875 C 38.417265 27.327902 38.690044 26.942258 38.9375 26.5625 C 39.195533 26.145931 39.465223 25.742304 39.75 25.34375 C 39.945952 25.070319 40.118872 24.782306 40.34375 24.53125 C 40.502116 24.354449 40.547078 24.319598 40.71875 24.15625 C 40.782664 24.101429 40.84037 24.05244 40.90625 24 C 40.970866 23.948568 41.05839 23.89258 41.125 23.84375 C 41.368958 23.664932 41.596447 23.517908 41.84375 23.34375 C 42.251216 23.056306 42.671374 22.765107 43.09375 22.5 C 43.113592 22.488313 43.136642 22.480868 43.15625 22.46875 C 43.253715 22.451198 43.34757 22.38523 43.4375 22.34375 C 43.699416 22.222954 43.947644 22.12882 44.21875 22.03125 C 44.569205 21.917459 44.92233 21.80335 45.28125 21.71875 C 45.525722 21.66113 45.626242 21.6405 45.875 21.59375 C 46.486096 21.489942 47.10439 21.42498 47.71875 21.34375 C 48.074193 21.276681 48.428209 21.26794 48.78125 21.1875 C 48.835467 21.17515 48.88378 21.13935 48.9375 21.125 C 49.319052 20.994912 49.678118 20.785014 50.03125 20.59375 C 50.730007 20.209587 51.416888 19.827901 52.09375 19.40625 C 52.487392 19.159529 52.857111 18.890233 53.1875 18.5625 C 53.388621 18.362996 53.504664 18.245926 53.6875 18.03125 C 54.088429 17.561177 54.399555 17.026287 54.71875 16.5 C 54.949471 16.089554 55.19327 15.683638 55.4375 15.28125 C 55.544173 15.120057 55.61559 14.928506 55.6875 14.75 z "
         inkscape:radius="0.39337406"
         sodipodi:type="inkscape:offset" />
    </g>
    <path
       style="opacity:0.45285722;fill:#000000;stroke:none;filter:url(#filter3883)"
       d="m 19.893976,1036.6321 1.233735,-2.2362 c 0,0 0.616867,-2.0819 0.693976,-2.4675 0.07711,-0.3855 -0.07711,-2.3132 -0.07711,-2.6988 0,-0.3855 -0.925301,-2.5445 -0.925301,-2.5445 l -1.233735,-1.5422 2.698795,-2.7759 6.014458,8.6361 z"
       id="path3873"
       inkscape:connector-curvature="0" />
    <g
       id="g3792"
       transform="translate(4.7807229,15.498795)">
      <path
         sodipodi:nodetypes="ssccccccccss"
         inkscape:connector-curvature="0"
         id="path3757"
         d="m 54.070797,997.59305 c -3.239131,-3.67318 -8.809186,-4.02295 -12.482367,-0.78382 l -6.703736,4.76657 -4.73556,5.4126 -6.131002,4.2403 -3.899348,4.5132 11.719222,13.2896 5.746685,-4.0723 5.59204,-5.5261 5.87962,-4.2857 4.251302,-5.0486 c 3.154484,-3.7461 4.002274,-8.8326 0.763144,-12.50575 z"
         style="fill:#502d16;fill-opacity:1;stroke:#d38d5f;stroke-width:0;stroke-linecap:round;stroke-linejoin:round;stroke-miterlimit:4;stroke-opacity:1" />
      <path
         transform="matrix(0.66140231,0.75003133,-0.75003133,0.66140231,27.6634,983.37289)"
         d="m 37.012049,27.06506 c 0,4.897368 -3.970102,8.867469 -8.86747,8.867469 -4.897368,0 -8.86747,-3.970101 -8.86747,-8.867469 0,-4.897369 3.970102,-8.86747 8.86747,-8.86747 4.897368,0 8.86747,3.970101 8.86747,8.86747 z"
         sodipodi:ry="8.8674698"
         sodipodi:rx="8.8674698"
         sodipodi:cy="27.06506"
         sodipodi:cx="28.144579"
         id="path3755"
         style="fill:#784421;fill-opacity:1;stroke:#d38d5f;stroke-width:0;stroke-linecap:round;stroke-linejoin:round;stroke-miterlimit:4;stroke-opacity:1;stroke-dasharray:none"
         sodipodi:type="arc" />
      <path
         sodipodi:type="arc"
         style="fill:#a05a2c;fill-opacity:1;stroke:#d38d5f;stroke-width:0;stroke-linecap:round;stroke-linejoin:round;stroke-miterlimit:4;stroke-opacity:1;stroke-dasharray:none"
         id="path3764"
         sodipodi:cx="28.144579"
         sodipodi:cy="27.06506"
         sodipodi:rx="8.8674698"
         sodipodi:ry="8.8674698"
         d="m 37.012049,27.06506 c 0,4.897368 -3.970102,8.867469 -8.86747,8.867469 -4.897368,0 -8.86747,-3.970101 -8.86747,-8.867469 0,-4.897369 3.970102,-8.86747 8.86747,-8.86747 4.897368,0 8.86747,3.970101 8.86747,8.86747 z"
         transform="matrix(0.58663601,0.66524621,-0.66524621,0.58663601,27.304592,987.60675)" />
      <path
         transform="matrix(0.52337221,0.59350496,-0.59350496,0.52337221,26.835009,991.10679)"
         d="m 37.012049,27.06506 c 0,4.897368 -3.970102,8.867469 -8.86747,8.867469 -4.897368,0 -8.86747,-3.970101 -8.86747,-8.867469 0,-4.897369 3.970102,-8.86747 8.86747,-8.86747 4.897368,0 8.86747,3.970101 8.86747,8.86747 z"
         sodipodi:ry="8.8674698"
         sodipodi:rx="8.8674698"
         sodipodi:cy="27.06506"
         sodipodi:cx="28.144579"
         id="path3766"
         style="fill:#784421;fill-opacity:1;stroke:#d38d5f;stroke-width:0;stroke-linecap:round;stroke-linejoin:round;stroke-miterlimit:4;stroke-opacity:1;stroke-dasharray:none"
         sodipodi:type="arc" />
      <path
         sodipodi:type="arc"
         style="fill:#a05a2c;fill-opacity:1;stroke:#d38d5f;stroke-width:0;stroke-linecap:round;stroke-linejoin:round;stroke-miterlimit:4;stroke-opacity:1;stroke-dasharray:none"
         id="path3768"
         sodipodi:cx="28.144579"
         sodipodi:cy="27.06506"
         sodipodi:rx="8.8674698"
         sodipodi:ry="8.8674698"
         d="m 37.012049,27.06506 c 0,4.897368 -3.970102,8.867469 -8.86747,8.867469 -4.897368,0 -8.86747,-3.970101 -8.86747,-8.867469 0,-4.897369 3.970102,-8.86747 8.86747,-8.86747 4.897368,0 8.86747,3.970101 8.86747,8.86747 z"
         transform="matrix(0.45435716,0.51524177,-0.51524177,0.45435716,26.813428,995.25448)" />
      <path
         sodipodi:type="arc"
         style="fill:#784421;fill-opacity:1;stroke:#d38d5f;stroke-width:0;stroke-linecap:round;stroke-linejoin:round;stroke-miterlimit:4;stroke-opacity:1;stroke-dasharray:none"
         id="path3770"
         sodipodi:cx="28.144579"
         sodipodi:cy="27.06506"
         sodipodi:rx="8.8674698"
         sodipodi:ry="8.8674698"
         d="m 37.012049,27.06506 c 0,4.897368 -3.970102,8.867469 -8.86747,8.867469 -4.897368,0 -8.86747,-3.970101 -8.86747,-8.867469 0,-4.897369 3.970102,-8.86747 8.86747,-8.86747 4.897368,0 8.86747,3.970101 8.86747,8.86747 z"
         transform="matrix(0.3912028,0.44362463,-0.44362463,0.3912028,26.825484,999.06585)" />
      <path
         transform="matrix(0.318121,0.36074974,-0.36074974,0.318121,26.193782,1002.9627)"
         d="m 37.012049,27.06506 c 0,4.897368 -3.970102,8.867469 -8.86747,8.867469 -4.897368,0 -8.86747,-3.970101 -8.86747,-8.867469 0,-4.897369 3.970102,-8.86747 8.86747,-8.86747 4.897368,0 8.86747,3.970101 8.86747,8.86747 z"
         sodipodi:ry="8.8674698"
         sodipodi:rx="8.8674698"
         sodipodi:cy="27.06506"
         sodipodi:cx="28.144579"
         id="path3772"
         style="fill:#a05a2c;fill-opacity:1;stroke:#d38d5f;stroke-width:0;stroke-linecap:round;stroke-linejoin:round;stroke-miterlimit:4;stroke-opacity:1;stroke-dasharray:none"
         sodipodi:type="arc" />
      <path
         transform="matrix(0.25496665,0.2891326,-0.2891326,0.25496665,26.314886,1006.8014)"
         d="m 37.012049,27.06506 c 0,4.897368 -3.970102,8.867469 -8.86747,8.867469 -4.897368,0 -8.86747,-3.970101 -8.86747,-8.867469 0,-4.897369 3.970102,-8.86747 8.86747,-8.86747 4.897368,0 8.86747,3.970101 8.86747,8.86747 z"
         sodipodi:ry="8.8674698"
         sodipodi:rx="8.8674698"
         sodipodi:cy="27.06506"
         sodipodi:cx="28.144579"
         id="path3774"
         style="fill:#784421;fill-opacity:1;stroke:#d38d5f;stroke-width:0;stroke-linecap:round;stroke-linejoin:round;stroke-miterlimit:4;stroke-opacity:1;stroke-dasharray:none"
         sodipodi:type="arc" />
      <path
         sodipodi:type="arc"
         style="fill:#a05a2c;fill-opacity:1;stroke:#d38d5f;stroke-width:0;stroke-linecap:round;stroke-linejoin:round;stroke-miterlimit:4;stroke-opacity:1;stroke-dasharray:none"
         id="path3776"
         sodipodi:cx="28.144579"
         sodipodi:cy="27.06506"
         sodipodi:rx="8.8674698"
         sodipodi:ry="8.8674698"
         d="m 37.012049,27.06506 c 0,4.897368 -3.970102,8.867469 -8.86747,8.867469 -4.897368,0 -8.86747,-3.970101 -8.86747,-8.867469 0,-4.897369 3.970102,-8.86747 8.86747,-8.86747 4.897368,0 8.86747,3.970101 8.86747,8.86747 z"
         transform="matrix(0.17781809,0.20164601,-0.20164601,0.17781809,25.400205,1011.7014)" />
      <path
         sodipodi:type="arc"
         style="fill:#784421;fill-opacity:1;stroke:#d38d5f;stroke-width:0;stroke-linecap:round;stroke-linejoin:round;stroke-miterlimit:4;stroke-opacity:1;stroke-dasharray:none"
         id="path3778"
         sodipodi:cx="28.144579"
         sodipodi:cy="27.06506"
         sodipodi:rx="8.8674698"
         sodipodi:ry="8.8674698"
         d="m 37.012049,27.06506 c 0,4.897368 -3.970102,8.867469 -8.86747,8.867469 -4.897368,0 -8.86747,-3.970101 -8.86747,-8.867469 0,-4.897369 3.970102,-8.86747 8.86747,-8.86747 4.897368,0 8.86747,3.970101 8.86747,8.86747 z"
         transform="matrix(0.11873049,0.13464057,-0.13464057,0.11873049,25.613454,1014.9731)" />
      <path
         transform="matrix(0.09038294,0.10249441,-0.10249441,0.09038294,25.395582,1016.6948)"
         d="m 37.012049,27.06506 c 0,4.897368 -3.970102,8.867469 -8.86747,8.867469 -4.897368,0 -8.86747,-3.970101 -8.86747,-8.867469 0,-4.897369 3.970102,-8.86747 8.86747,-8.86747 4.897368,0 8.86747,3.970101 8.86747,8.86747 z"
         sodipodi:ry="8.8674698"
         sodipodi:rx="8.8674698"
         sodipodi:cy="27.06506"
         sodipodi:cx="28.144579"
         id="path3780"
         style="fill:#a05a2c;fill-opacity:1;stroke:#d38d5f;stroke-width:0;stroke-linecap:round;stroke-linejoin:round;stroke-miterlimit:4;stroke-opacity:1;stroke-dasharray:none"
         sodipodi:type="arc" />
      <path
         transform="matrix(0.94606901,0,0,0.94606901,2.6401159,991.3558)"
         d="M 55.65625,14.34375 A 0.39341339,0.39341339 0 0 0 55.5,14.40625 l -0.5,0.25 a 0.39341339,0.39341339 0 0 0 -0.1875,0.1875 c -0.06649,0.163209 -0.135772,0.30813 -0.21875,0.4375 a 0.39341339,0.39341339 0 0 0 0,0.03125 c -0.236146,0.398398 -0.48449,0.804678 -0.71875,1.21875 -0.312508,0.519553 -0.627008,1.001364 -1,1.4375 -0.198967,0.231265 -0.24693,0.314759 -0.4375,0.5 -0.309358,0.300706 -0.655549,0.546107 -1.03125,0.78125 -0.161836,0.100157 -0.314988,0.218051 -0.46875,0.3125 -0.0072,0.0044 -0.02405,-0.0044 -0.03125,0 -0.0042,0.0025 0.004,0.02879 0,0.03125 -0.01995,0.01229 -0.04663,0.02054 -0.0625,0.03125 -0.0063,0.0043 -0.02555,-0.0039 -0.03125,0 -0.0057,0.0039 0.0038,0.02888 0,0.03125 -0.01873,0.0103 -0.04317,0.0209 -0.0625,0.03125 -0.154649,0.08282 -0.329361,0.157552 -0.5,0.25 -0.360606,0.193979 -0.671922,0.377825 -1,0.5 -0.131745,0.03896 -0.07667,0.03172 -0.25,0.0625 -0.267551,0.04751 -0.597528,0.06279 -0.9375,0.125 -0.619869,0.08528 -1.229648,0.181237 -1.84375,0.28125 -0.270287,0.04876 -0.556327,0.07183 -0.875,0.15625 -0.216651,0.05739 -0.353667,0.09031 -0.5625,0.15625 -0.126689,0.04001 -0.200155,0.07806 -0.25,0.09375 -0.355047,0.12657 -0.76942,0.259398 -1.15625,0.46875 -0.249079,0.1348 -0.481868,0.27069 -0.71875,0.40625 -0.108029,0.06182 -0.184446,0.117297 -0.25,0.15625 a 0.39341339,0.39341339 0 0 0 -0.03125,0 c -0.435078,0.273932 -0.83749,0.584653 -1.25,0.875 -0.374647,0.265332 -0.779115,0.53801 -1.15625,0.875 a 0.39341339,0.39341339 0 0 0 -0.03125,0 c -0.175046,0.170169 -0.196147,0.238487 -0.34375,0.40625 -0.24114,0.274077 -0.459614,0.571803 -0.65625,0.84375 -0.289598,0.406255 -0.580043,0.794338 -0.84375,1.21875 -0.25112,0.384674 -0.484874,0.788816 -0.71875,1.1875 -0.226263,0.383631 -0.443474,0.762647 -0.65625,1.125 -0.0044,0.0076 0.0044,0.02371 0,0.03125 -0.231581,0.378314 -0.466555,0.75154 -0.71875,1.125 -0.251281,0.366033 -0.501893,0.717492 -0.75,1.0625 -0.0049,0.0068 0.0049,0.02442 0,0.03125 -0.145926,0.188766 -0.314184,0.394259 -0.46875,0.53125 a 0.39341339,0.39341339 0 0 0 0.40625,0.65625 l 0.53125,-0.21875 A 0.39341339,0.39341339 0 0 0 35.84375,32 c 0.220549,-0.20554 0.380589,-0.422027 0.53125,-0.625 a 0.39341339,0.39341339 0 0 0 0,-0.03125 c 0.255131,-0.367395 0.499771,-0.730015 0.75,-1.09375 0.258063,-0.384305 0.535383,-0.750284 0.78125,-1.15625 0.181906,-0.291851 0.279215,-0.583628 0.40625,-0.8125 0.0686,-0.123597 0.14124,-0.244384 0.21875,-0.375 0.218122,-0.371042 0.496857,-0.736515 0.75,-1.125 0.25332,-0.40896 0.501212,-0.826828 0.78125,-1.21875 0.208311,-0.290676 0.370515,-0.566916 0.5625,-0.78125 0.137729,-0.153761 0.204693,-0.181233 0.34375,-0.3125 0.01322,-0.01248 0.01595,-0.01669 0.03125,-0.03125 0.04922,-0.04199 0.107025,-0.08582 0.15625,-0.125 0.03803,-0.03027 0.104009,-0.09504 0.1875,-0.15625 0.232835,-0.170665 0.463808,-0.320462 0.71875,-0.5 0.398511,-0.281127 0.813894,-0.557465 1.21875,-0.8125 l 0.03125,0 c 0.0015,0.0013 0.0096,0.0015 0.0625,-0.03125 l -0.03125,-0.03125 c 0.09973,-0.04129 0.223456,-0.08151 0.25,-0.09375 0.246659,-0.11376 0.48276,-0.185071 0.75,-0.28125 0.350102,-0.113676 0.693132,-0.232803 1.03125,-0.3125 0.241443,-0.05691 0.315482,-0.07858 0.5625,-0.125 0.594619,-0.101009 1.222408,-0.167847 1.84375,-0.25 0.314797,-0.0594 0.69119,-0.06453 1.09375,-0.15625 0.165387,-0.03767 0.203317,-0.07507 0.15625,-0.0625 a 0.39341339,0.39341339 0 0 0 0.03125,0 c 0.432534,-0.14747 0.810903,-0.375453 1.15625,-0.5625 0.69978,-0.384726 1.405941,-0.759029 2.09375,-1.1875 0.408868,-0.256264 0.798181,-0.55106 1.15625,-0.90625 0.202036,-0.200411 0.340914,-0.339018 0.53125,-0.5625 0.431336,-0.505723 0.745815,-1.040352 1.0625,-1.5625 a 0.39341339,0.39341339 0 0 0 0,-0.03125 c 0.227004,-0.403833 0.475156,-0.786159 0.71875,-1.1875 l -0.03125,0 c 0.141231,-0.213414 0.243305,-0.421983 0.3125,-0.59375 a 0.39341339,0.39341339 0 0 0 -0.40625,-0.5625 z"
         id="path3788"
         style="fill:#784421;fill-opacity:1;stroke:#d38d5f;stroke-width:0;stroke-linecap:round;stroke-linejoin:round;stroke-miterlimit:4;stroke-opacity:1;stroke-dasharray:none"
         inkscape:original="M 55.6875 14.75 L 55.1875 15 C 55.116561 15.174142 55.039389 15.341147 54.9375 15.5 C 54.699551 15.90144 54.448577 16.312514 54.21875 16.71875 C 53.904175 17.24174 53.585632 17.753218 53.1875 18.21875 C 52.998611 18.438301 52.927677 18.546916 52.71875 18.75 C 52.385266 19.074157 52.018465 19.347489 51.625 19.59375 C 51.459766 19.69601 51.290792 19.804907 51.125 19.90625 C 51.064186 19.941216 50.998819 19.989048 51.03125 19.96875 C 50.839861 20.076134 50.630465 20.176707 50.4375 20.28125 C 50.087885 20.469317 49.748037 20.673582 49.375 20.8125 C 49.225538 20.8567 49.218773 20.84725 49.0625 20.875 C 48.759356 20.928826 48.42798 20.94456 48.125 21 C 47.510149 21.08459 46.89392 21.18147 46.28125 21.28125 C 45.993709 21.333122 45.720168 21.36262 45.4375 21.4375 C 45.22639 21.493424 45.114245 21.52807 44.90625 21.59375 C 44.81788 21.62166 44.74465 21.65968 44.65625 21.6875 C 44.291911 21.817382 43.903783 21.940298 43.5625 22.125 C 43.320688 22.255867 43.082389 22.394684 42.84375 22.53125 C 42.758505 22.580034 42.67818 22.63733 42.59375 22.6875 C 42.168471 22.955262 41.754691 23.242007 41.34375 23.53125 C 40.962507 23.801254 40.567568 24.063313 40.21875 24.375 C 40.052801 24.536325 40.028317 24.575743 39.875 24.75 C 39.651985 25.003476 39.447459 25.289415 39.25 25.5625 C 38.964973 25.962343 38.696744 26.364021 38.4375 26.78125 C 38.18905 27.161834 37.94878 27.545373 37.71875 27.9375 C 37.494466 28.317775 37.286835 28.713525 37.0625 29.09375 C 36.821837 29.48814 36.571063 29.86711 36.3125 30.25 C 36.059996 30.617814 35.823681 30.982002 35.5625 31.34375 C 35.406193 31.547329 35.224043 31.766628 35.03125 31.9375 L 35.5625 31.71875 C 35.746321 31.547438 35.913149 31.326208 36.0625 31.125 C 36.315648 30.760461 36.560945 30.396912 36.8125 30.03125 C 37.07047 29.647083 37.322767 29.270837 37.5625 28.875 C 37.719396 28.623275 37.824978 28.352776 37.96875 28.09375 C 38.041549 27.962593 38.11095 27.847749 38.1875 27.71875 C 38.417265 27.327902 38.690044 26.942258 38.9375 26.5625 C 39.195533 26.145931 39.465223 25.742304 39.75 25.34375 C 39.945952 25.070319 40.118872 24.782306 40.34375 24.53125 C 40.502116 24.354449 40.547078 24.319598 40.71875 24.15625 C 40.782664 24.101429 40.84037 24.05244 40.90625 24 C 40.970866 23.948568 41.05839 23.89258 41.125 23.84375 C 41.368958 23.664932 41.596447 23.517908 41.84375 23.34375 C 42.251216 23.056306 42.671374 22.765107 43.09375 22.5 C 43.113592 22.488313 43.136642 22.480868 43.15625 22.46875 C 43.253715 22.451198 43.34757 22.38523 43.4375 22.34375 C 43.699416 22.222954 43.947644 22.12882 44.21875 22.03125 C 44.569205 21.917459 44.92233 21.80335 45.28125 21.71875 C 45.525722 21.66113 45.626242 21.6405 45.875 21.59375 C 46.486096 21.489942 47.10439 21.42498 47.71875 21.34375 C 48.074193 21.276681 48.428209 21.26794 48.78125 21.1875 C 48.835467 21.17515 48.88378 21.13935 48.9375 21.125 C 49.319052 20.994912 49.678118 20.785014 50.03125 20.59375 C 50.730007 20.209587 51.416888 19.827901 52.09375 19.40625 C 52.487392 19.159529 52.857111 18.890233 53.1875 18.5625 C 53.388621 18.362996 53.504664 18.245926 53.6875 18.03125 C 54.088429 17.561177 54.399555 17.026287 54.71875 16.5 C 54.949471 16.089554 55.19327 15.683638 55.4375 15.28125 C 55.544173 15.120057 55.61559 14.928506 55.6875 14.75 z "
         inkscape:radius="0.39337406"
         sodipodi:type="inkscape:offset" />
      <path
         sodipodi:type="inkscape:offset"
         inkscape:radius="0.39337406"
         inkscape:original="M 55.6875 14.75 L 55.1875 15 C 55.116561 15.174142 55.039389 15.341147 54.9375 15.5 C 54.699551 15.90144 54.448577 16.312514 54.21875 16.71875 C 53.904175 17.24174 53.585632 17.753218 53.1875 18.21875 C 52.998611 18.438301 52.927677 18.546916 52.71875 18.75 C 52.385266 19.074157 52.018465 19.347489 51.625 19.59375 C 51.459766 19.69601 51.290792 19.804907 51.125 19.90625 C 51.064186 19.941216 50.998819 19.989048 51.03125 19.96875 C 50.839861 20.076134 50.630465 20.176707 50.4375 20.28125 C 50.087885 20.469317 49.748037 20.673582 49.375 20.8125 C 49.225538 20.8567 49.218773 20.84725 49.0625 20.875 C 48.759356 20.928826 48.42798 20.94456 48.125 21 C 47.510149 21.08459 46.89392 21.18147 46.28125 21.28125 C 45.993709 21.333122 45.720168 21.36262 45.4375 21.4375 C 45.22639 21.493424 45.114245 21.52807 44.90625 21.59375 C 44.81788 21.62166 44.74465 21.65968 44.65625 21.6875 C 44.291911 21.817382 43.903783 21.940298 43.5625 22.125 C 43.320688 22.255867 43.082389 22.394684 42.84375 22.53125 C 42.758505 22.580034 42.67818 22.63733 42.59375 22.6875 C 42.168471 22.955262 41.754691 23.242007 41.34375 23.53125 C 40.962507 23.801254 40.567568 24.063313 40.21875 24.375 C 40.052801 24.536325 40.028317 24.575743 39.875 24.75 C 39.651985 25.003476 39.447459 25.289415 39.25 25.5625 C 38.964973 25.962343 38.696744 26.364021 38.4375 26.78125 C 38.18905 27.161834 37.94878 27.545373 37.71875 27.9375 C 37.494466 28.317775 37.286835 28.713525 37.0625 29.09375 C 36.821837 29.48814 36.571063 29.86711 36.3125 30.25 C 36.059996 30.617814 35.823681 30.982002 35.5625 31.34375 C 35.406193 31.547329 35.224043 31.766628 35.03125 31.9375 L 35.5625 31.71875 C 35.746321 31.547438 35.913149 31.326208 36.0625 31.125 C 36.315648 30.760461 36.560945 30.396912 36.8125 30.03125 C 37.07047 29.647083 37.322767 29.270837 37.5625 28.875 C 37.719396 28.623275 37.824978 28.352776 37.96875 28.09375 C 38.041549 27.962593 38.11095 27.847749 38.1875 27.71875 C 38.417265 27.327902 38.690044 26.942258 38.9375 26.5625 C 39.195533 26.145931 39.465223 25.742304 39.75 25.34375 C 39.945952 25.070319 40.118872 24.782306 40.34375 24.53125 C 40.502116 24.354449 40.547078 24.319598 40.71875 24.15625 C 40.782664 24.101429 40.84037 24.05244 40.90625 24 C 40.970866 23.948568 41.05839 23.89258 41.125 23.84375 C 41.368958 23.664932 41.596447 23.517908 41.84375 23.34375 C 42.251216 23.056306 42.671374 22.765107 43.09375 22.5 C 43.113592 22.488313 43.136642 22.480868 43.15625 22.46875 C 43.253715 22.451198 43.34757 22.38523 43.4375 22.34375 C 43.699416 22.222954 43.947644 22.12882 44.21875 22.03125 C 44.569205 21.917459 44.92233 21.80335 45.28125 21.71875 C 45.525722 21.66113 45.626242 21.6405 45.875 21.59375 C 46.486096 21.489942 47.10439 21.42498 47.71875 21.34375 C 48.074193 21.276681 48.428209 21.26794 48.78125 21.1875 C 48.835467 21.17515 48.88378 21.13935 48.9375 21.125 C 49.319052 20.994912 49.678118 20.785014 50.03125 20.59375 C 50.730007 20.209587 51.416888 19.827901 52.09375 19.40625 C 52.487392 19.159529 52.857111 18.890233 53.1875 18.5625 C 53.388621 18.362996 53.504664 18.245926 53.6875 18.03125 C 54.088429 17.561177 54.399555 17.026287 54.71875 16.5 C 54.949471 16.089554 55.19327 15.683638 55.4375 15.28125 C 55.544173 15.120057 55.61559 14.928506 55.6875 14.75 z "
         style="fill:#784421;fill-opacity:1;stroke:#d38d5f;stroke-width:0;stroke-linecap:round;stroke-linejoin:round;stroke-miterlimit:4;stroke-opacity:1;stroke-dasharray:none"
         id="path3790"
         d="M 55.65625,14.34375 A 0.39341339,0.39341339 0 0 0 55.5,14.40625 l -0.5,0.25 a 0.39341339,0.39341339 0 0 0 -0.1875,0.1875 c -0.06649,0.163209 -0.135772,0.30813 -0.21875,0.4375 a 0.39341339,0.39341339 0 0 0 0,0.03125 c -0.236146,0.398398 -0.48449,0.804678 -0.71875,1.21875 -0.312508,0.519553 -0.627008,1.001364 -1,1.4375 -0.198967,0.231265 -0.24693,0.314759 -0.4375,0.5 -0.309358,0.300706 -0.655549,0.546107 -1.03125,0.78125 -0.161836,0.100157 -0.314988,0.218051 -0.46875,0.3125 -0.0072,0.0044 -0.02405,-0.0044 -0.03125,0 -0.0042,0.0025 0.004,0.02879 0,0.03125 -0.01995,0.01229 -0.04663,0.02054 -0.0625,0.03125 -0.0063,0.0043 -0.02555,-0.0039 -0.03125,0 -0.0057,0.0039 0.0038,0.02888 0,0.03125 -0.01873,0.0103 -0.04317,0.0209 -0.0625,0.03125 -0.154649,0.08282 -0.329361,0.157552 -0.5,0.25 -0.360606,0.193979 -0.671922,0.377825 -1,0.5 -0.131745,0.03896 -0.07667,0.03172 -0.25,0.0625 -0.267551,0.04751 -0.597528,0.06279 -0.9375,0.125 -0.619869,0.08528 -1.229648,0.181237 -1.84375,0.28125 -0.270287,0.04876 -0.556327,0.07183 -0.875,0.15625 -0.216651,0.05739 -0.353667,0.09031 -0.5625,0.15625 -0.126689,0.04001 -0.200155,0.07806 -0.25,0.09375 -0.355047,0.12657 -0.76942,0.259398 -1.15625,0.46875 -0.249079,0.1348 -0.481868,0.27069 -0.71875,0.40625 -0.108029,0.06182 -0.184446,0.117297 -0.25,0.15625 a 0.39341339,0.39341339 0 0 0 -0.03125,0 c -0.435078,0.273932 -0.83749,0.584653 -1.25,0.875 -0.374647,0.265332 -0.779115,0.53801 -1.15625,0.875 a 0.39341339,0.39341339 0 0 0 -0.03125,0 c -0.175046,0.170169 -0.196147,0.238487 -0.34375,0.40625 -0.24114,0.274077 -0.459614,0.571803 -0.65625,0.84375 -0.289598,0.406255 -0.580043,0.794338 -0.84375,1.21875 -0.25112,0.384674 -0.484874,0.788816 -0.71875,1.1875 -0.226263,0.383631 -0.443474,0.762647 -0.65625,1.125 -0.0044,0.0076 0.0044,0.02371 0,0.03125 -0.231581,0.378314 -0.466555,0.75154 -0.71875,1.125 -0.251281,0.366033 -0.501893,0.717492 -0.75,1.0625 -0.0049,0.0068 0.0049,0.02442 0,0.03125 -0.145926,0.188766 -0.314184,0.394259 -0.46875,0.53125 a 0.39341339,0.39341339 0 0 0 0.40625,0.65625 l 0.53125,-0.21875 A 0.39341339,0.39341339 0 0 0 35.84375,32 c 0.220549,-0.20554 0.380589,-0.422027 0.53125,-0.625 a 0.39341339,0.39341339 0 0 0 0,-0.03125 c 0.255131,-0.367395 0.499771,-0.730015 0.75,-1.09375 0.258063,-0.384305 0.535383,-0.750284 0.78125,-1.15625 0.181906,-0.291851 0.279215,-0.583628 0.40625,-0.8125 0.0686,-0.123597 0.14124,-0.244384 0.21875,-0.375 0.218122,-0.371042 0.496857,-0.736515 0.75,-1.125 0.25332,-0.40896 0.501212,-0.826828 0.78125,-1.21875 0.208311,-0.290676 0.370515,-0.566916 0.5625,-0.78125 0.137729,-0.153761 0.204693,-0.181233 0.34375,-0.3125 0.01322,-0.01248 0.01595,-0.01669 0.03125,-0.03125 0.04922,-0.04199 0.107025,-0.08582 0.15625,-0.125 0.03803,-0.03027 0.104009,-0.09504 0.1875,-0.15625 0.232835,-0.170665 0.463808,-0.320462 0.71875,-0.5 0.398511,-0.281127 0.813894,-0.557465 1.21875,-0.8125 l 0.03125,0 c 0.0015,0.0013 0.0096,0.0015 0.0625,-0.03125 l -0.03125,-0.03125 c 0.09973,-0.04129 0.223456,-0.08151 0.25,-0.09375 0.246659,-0.11376 0.48276,-0.185071 0.75,-0.28125 0.350102,-0.113676 0.693132,-0.232803 1.03125,-0.3125 0.241443,-0.05691 0.315482,-0.07858 0.5625,-0.125 0.594619,-0.101009 1.222408,-0.167847 1.84375,-0.25 0.314797,-0.0594 0.69119,-0.06453 1.09375,-0.15625 0.165387,-0.03767 0.203317,-0.07507 0.15625,-0.0625 a 0.39341339,0.39341339 0 0 0 0.03125,0 c 0.432534,-0.14747 0.810903,-0.375453 1.15625,-0.5625 0.69978,-0.384726 1.405941,-0.759029 2.09375,-1.1875 0.408868,-0.256264 0.798181,-0.55106 1.15625,-0.90625 0.202036,-0.200411 0.340914,-0.339018 0.53125,-0.5625 0.431336,-0.505723 0.745815,-1.040352 1.0625,-1.5625 a 0.39341339,0.39341339 0 0 0 0,-0.03125 c 0.227004,-0.403833 0.475156,-0.786159 0.71875,-1.1875 l -0.03125,0 c 0.141231,-0.213414 0.243305,-0.421983 0.3125,-0.59375 a 0.39341339,0.39341339 0 0 0 -0.40625,-0.5625 z"
         transform="matrix(0.94606901,0,0,0.94606901,1.3292725,985.72689)" />
    </g>
    <path
       style="opacity:0.40476194;fill:#000000;stroke:none;filter:url(#filter3869)"
       d="m 31.768675,1028.9983 -5.628916,-0.7711 6.4,-2.853 c 0,0 12.028916,-10.6409 12.337349,-10.9494 0.308434,-0.3084 6.4,-4.2409 6.4,-4.2409 l 3.315663,0.3084 -4.240964,5.2434 -6.631325,5.8602 -3.624097,3.3928 z"
       id="path3863"
       inkscape:connector-curvature="0" />
    <g
       transform="translate(1.6192771,-2.6216867)"
       id="g3835">
      <path
         style="fill:#502d16;fill-opacity:1;stroke:#d38d5f;stroke-width:0;stroke-linecap:round;stroke-linejoin:round;stroke-miterlimit:4;stroke-opacity:1"
         d="m 54.070797,997.59305 c -3.239131,-3.67318 -8.809186,-4.02295 -12.482367,-0.78382 l -6.703736,4.76657 -4.73556,5.4126 -6.131002,4.2403 -3.899348,4.5132 11.719222,13.2896 5.746685,-4.0723 5.59204,-5.5261 5.87962,-4.2857 4.251302,-5.0486 c 3.154484,-3.7461 4.002274,-8.8326 0.763144,-12.50575 z"
         id="path3837"
         inkscape:connector-curvature="0"
         sodipodi:nodetypes="ssccccccccss" />
      <path
         sodipodi:type="arc"
         style="fill:#784421;fill-opacity:1;stroke:#d38d5f;stroke-width:0;stroke-linecap:round;stroke-linejoin:round;stroke-miterlimit:4;stroke-opacity:1;stroke-dasharray:none"
         id="path3839"
         sodipodi:cx="28.144579"
         sodipodi:cy="27.06506"
         sodipodi:rx="8.8674698"
         sodipodi:ry="8.8674698"
         d="m 37.012049,27.06506 c 0,4.897368 -3.970102,8.867469 -8.86747,8.867469 -4.897368,0 -8.86747,-3.970101 -8.86747,-8.867469 0,-4.897369 3.970102,-8.86747 8.86747,-8.86747 4.897368,0 8.86747,3.970101 8.86747,8.86747 z"
         transform="matrix(0.66140231,0.75003133,-0.75003133,0.66140231,27.6634,983.37289)" />
      <path
         transform="matrix(0.58663601,0.66524621,-0.66524621,0.58663601,27.304592,987.60675)"
         d="m 37.012049,27.06506 c 0,4.897368 -3.970102,8.867469 -8.86747,8.867469 -4.897368,0 -8.86747,-3.970101 -8.86747,-8.867469 0,-4.897369 3.970102,-8.86747 8.86747,-8.86747 4.897368,0 8.86747,3.970101 8.86747,8.86747 z"
         sodipodi:ry="8.8674698"
         sodipodi:rx="8.8674698"
         sodipodi:cy="27.06506"
         sodipodi:cx="28.144579"
         id="path3841"
         style="fill:#a05a2c;fill-opacity:1;stroke:#d38d5f;stroke-width:0;stroke-linecap:round;stroke-linejoin:round;stroke-miterlimit:4;stroke-opacity:1;stroke-dasharray:none"
         sodipodi:type="arc" />
      <path
         sodipodi:type="arc"
         style="fill:#784421;fill-opacity:1;stroke:#d38d5f;stroke-width:0;stroke-linecap:round;stroke-linejoin:round;stroke-miterlimit:4;stroke-opacity:1;stroke-dasharray:none"
         id="path3843"
         sodipodi:cx="28.144579"
         sodipodi:cy="27.06506"
         sodipodi:rx="8.8674698"
         sodipodi:ry="8.8674698"
         d="m 37.012049,27.06506 c 0,4.897368 -3.970102,8.867469 -8.86747,8.867469 -4.897368,0 -8.86747,-3.970101 -8.86747,-8.867469 0,-4.897369 3.970102,-8.86747 8.86747,-8.86747 4.897368,0 8.86747,3.970101 8.86747,8.86747 z"
         transform="matrix(0.52337221,0.59350496,-0.59350496,0.52337221,26.835009,991.10679)" />
      <path
         transform="matrix(0.45435716,0.51524177,-0.51524177,0.45435716,26.813428,995.25448)"
         d="m 37.012049,27.06506 c 0,4.897368 -3.970102,8.867469 -8.86747,8.867469 -4.897368,0 -8.86747,-3.970101 -8.86747,-8.867469 0,-4.897369 3.970102,-8.86747 8.86747,-8.86747 4.897368,0 8.86747,3.970101 8.86747,8.86747 z"
         sodipodi:ry="8.8674698"
         sodipodi:rx="8.8674698"
         sodipodi:cy="27.06506"
         sodipodi:cx="28.144579"
         id="path3845"
         style="fill:#a05a2c;fill-opacity:1;stroke:#d38d5f;stroke-width:0;stroke-linecap:round;stroke-linejoin:round;stroke-miterlimit:4;stroke-opacity:1;stroke-dasharray:none"
         sodipodi:type="arc" />
      <path
         transform="matrix(0.3912028,0.44362463,-0.44362463,0.3912028,26.825484,999.06585)"
         d="m 37.012049,27.06506 c 0,4.897368 -3.970102,8.867469 -8.86747,8.867469 -4.897368,0 -8.86747,-3.970101 -8.86747,-8.867469 0,-4.897369 3.970102,-8.86747 8.86747,-8.86747 4.897368,0 8.86747,3.970101 8.86747,8.86747 z"
         sodipodi:ry="8.8674698"
         sodipodi:rx="8.8674698"
         sodipodi:cy="27.06506"
         sodipodi:cx="28.144579"
         id="path3847"
         style="fill:#784421;fill-opacity:1;stroke:#d38d5f;stroke-width:0;stroke-linecap:round;stroke-linejoin:round;stroke-miterlimit:4;stroke-opacity:1;stroke-dasharray:none"
         sodipodi:type="arc" />
      <path
         sodipodi:type="arc"
         style="fill:#a05a2c;fill-opacity:1;stroke:#d38d5f;stroke-width:0;stroke-linecap:round;stroke-linejoin:round;stroke-miterlimit:4;stroke-opacity:1;stroke-dasharray:none"
         id="path3849"
         sodipodi:cx="28.144579"
         sodipodi:cy="27.06506"
         sodipodi:rx="8.8674698"
         sodipodi:ry="8.8674698"
         d="m 37.012049,27.06506 c 0,4.897368 -3.970102,8.867469 -8.86747,8.867469 -4.897368,0 -8.86747,-3.970101 -8.86747,-8.867469 0,-4.897369 3.970102,-8.86747 8.86747,-8.86747 4.897368,0 8.86747,3.970101 8.86747,8.86747 z"
         transform="matrix(0.318121,0.36074974,-0.36074974,0.318121,26.193782,1002.9627)" />
      <path
         sodipodi:type="arc"
         style="fill:#784421;fill-opacity:1;stroke:#d38d5f;stroke-width:0;stroke-linecap:round;stroke-linejoin:round;stroke-miterlimit:4;stroke-opacity:1;stroke-dasharray:none"
         id="path3851"
         sodipodi:cx="28.144579"
         sodipodi:cy="27.06506"
         sodipodi:rx="8.8674698"
         sodipodi:ry="8.8674698"
         d="m 37.012049,27.06506 c 0,4.897368 -3.970102,8.867469 -8.86747,8.867469 -4.897368,0 -8.86747,-3.970101 -8.86747,-8.867469 0,-4.897369 3.970102,-8.86747 8.86747,-8.86747 4.897368,0 8.86747,3.970101 8.86747,8.86747 z"
         transform="matrix(0.25496665,0.2891326,-0.2891326,0.25496665,26.314886,1006.8014)" />
      <path
         transform="matrix(0.17781809,0.20164601,-0.20164601,0.17781809,25.400205,1011.7014)"
         d="m 37.012049,27.06506 c 0,4.897368 -3.970102,8.867469 -8.86747,8.867469 -4.897368,0 -8.86747,-3.970101 -8.86747,-8.867469 0,-4.897369 3.970102,-8.86747 8.86747,-8.86747 4.897368,0 8.86747,3.970101 8.86747,8.86747 z"
         sodipodi:ry="8.8674698"
         sodipodi:rx="8.8674698"
         sodipodi:cy="27.06506"
         sodipodi:cx="28.144579"
         id="path3853"
         style="fill:#a05a2c;fill-opacity:1;stroke:#d38d5f;stroke-width:0;stroke-linecap:round;stroke-linejoin:round;stroke-miterlimit:4;stroke-opacity:1;stroke-dasharray:none"
         sodipodi:type="arc" />
      <path
         transform="matrix(0.11873049,0.13464057,-0.13464057,0.11873049,25.613454,1014.9731)"
         d="m 37.012049,27.06506 c 0,4.897368 -3.970102,8.867469 -8.86747,8.867469 -4.897368,0 -8.86747,-3.970101 -8.86747,-8.867469 0,-4.897369 3.970102,-8.86747 8.86747,-8.86747 4.897368,0 8.86747,3.970101 8.86747,8.86747 z"
         sodipodi:ry="8.8674698"
         sodipodi:rx="8.8674698"
         sodipodi:cy="27.06506"
         sodipodi:cx="28.144579"
         id="path3855"
         style="fill:#784421;fill-opacity:1;stroke:#d38d5f;stroke-width:0;stroke-linecap:round;stroke-linejoin:round;stroke-miterlimit:4;stroke-opacity:1;stroke-dasharray:none"
         sodipodi:type="arc" />
      <path
         sodipodi:type="arc"
         style="fill:#a05a2c;fill-opacity:1;stroke:#d38d5f;stroke-width:0;stroke-linecap:round;stroke-linejoin:round;stroke-miterlimit:4;stroke-opacity:1;stroke-dasharray:none"
         id="path3857"
         sodipodi:cx="28.144579"
         sodipodi:cy="27.06506"
         sodipodi:rx="8.8674698"
         sodipodi:ry="8.8674698"
         d="m 37.012049,27.06506 c 0,4.897368 -3.970102,8.867469 -8.86747,8.867469 -4.897368,0 -8.86747,-3.970101 -8.86747,-8.867469 0,-4.897369 3.970102,-8.86747 8.86747,-8.86747 4.897368,0 8.86747,3.970101 8.86747,8.86747 z"
         transform="matrix(0.09038294,0.10249441,-0.10249441,0.09038294,25.395582,1016.6948)" />
      <path
         sodipodi:type="inkscape:offset"
         inkscape:radius="0.39337406"
         inkscape:original="M 55.6875 14.75 L 55.1875 15 C 55.116561 15.174142 55.039389 15.341147 54.9375 15.5 C 54.699551 15.90144 54.448577 16.312514 54.21875 16.71875 C 53.904175 17.24174 53.585632 17.753218 53.1875 18.21875 C 52.998611 18.438301 52.927677 18.546916 52.71875 18.75 C 52.385266 19.074157 52.018465 19.347489 51.625 19.59375 C 51.459766 19.69601 51.290792 19.804907 51.125 19.90625 C 51.064186 19.941216 50.998819 19.989048 51.03125 19.96875 C 50.839861 20.076134 50.630465 20.176707 50.4375 20.28125 C 50.087885 20.469317 49.748037 20.673582 49.375 20.8125 C 49.225538 20.8567 49.218773 20.84725 49.0625 20.875 C 48.759356 20.928826 48.42798 20.94456 48.125 21 C 47.510149 21.08459 46.89392 21.18147 46.28125 21.28125 C 45.993709 21.333122 45.720168 21.36262 45.4375 21.4375 C 45.22639 21.493424 45.114245 21.52807 44.90625 21.59375 C 44.81788 21.62166 44.74465 21.65968 44.65625 21.6875 C 44.291911 21.817382 43.903783 21.940298 43.5625 22.125 C 43.320688 22.255867 43.082389 22.394684 42.84375 22.53125 C 42.758505 22.580034 42.67818 22.63733 42.59375 22.6875 C 42.168471 22.955262 41.754691 23.242007 41.34375 23.53125 C 40.962507 23.801254 40.567568 24.063313 40.21875 24.375 C 40.052801 24.536325 40.028317 24.575743 39.875 24.75 C 39.651985 25.003476 39.447459 25.289415 39.25 25.5625 C 38.964973 25.962343 38.696744 26.364021 38.4375 26.78125 C 38.18905 27.161834 37.94878 27.545373 37.71875 27.9375 C 37.494466 28.317775 37.286835 28.713525 37.0625 29.09375 C 36.821837 29.48814 36.571063 29.86711 36.3125 30.25 C 36.059996 30.617814 35.823681 30.982002 35.5625 31.34375 C 35.406193 31.547329 35.224043 31.766628 35.03125 31.9375 L 35.5625 31.71875 C 35.746321 31.547438 35.913149 31.326208 36.0625 31.125 C 36.315648 30.760461 36.560945 30.396912 36.8125 30.03125 C 37.07047 29.647083 37.322767 29.270837 37.5625 28.875 C 37.719396 28.623275 37.824978 28.352776 37.96875 28.09375 C 38.041549 27.962593 38.11095 27.847749 38.1875 27.71875 C 38.417265 27.327902 38.690044 26.942258 38.9375 26.5625 C 39.195533 26.145931 39.465223 25.742304 39.75 25.34375 C 39.945952 25.070319 40.118872 24.782306 40.34375 24.53125 C 40.502116 24.354449 40.547078 24.319598 40.71875 24.15625 C 40.782664 24.101429 40.84037 24.05244 40.90625 24 C 40.970866 23.948568 41.05839 23.89258 41.125 23.84375 C 41.368958 23.664932 41.596447 23.517908 41.84375 23.34375 C 42.251216 23.056306 42.671374 22.765107 43.09375 22.5 C 43.113592 22.488313 43.136642 22.480868 43.15625 22.46875 C 43.253715 22.451198 43.34757 22.38523 43.4375 22.34375 C 43.699416 22.222954 43.947644 22.12882 44.21875 22.03125 C 44.569205 21.917459 44.92233 21.80335 45.28125 21.71875 C 45.525722 21.66113 45.626242 21.6405 45.875 21.59375 C 46.486096 21.489942 47.10439 21.42498 47.71875 21.34375 C 48.074193 21.276681 48.428209 21.26794 48.78125 21.1875 C 48.835467 21.17515 48.88378 21.13935 48.9375 21.125 C 49.319052 20.994912 49.678118 20.785014 50.03125 20.59375 C 50.730007 20.209587 51.416888 19.827901 52.09375 19.40625 C 52.487392 19.159529 52.857111 18.890233 53.1875 18.5625 C 53.388621 18.362996 53.504664 18.245926 53.6875 18.03125 C 54.088429 17.561177 54.399555 17.026287 54.71875 16.5 C 54.949471 16.089554 55.19327 15.683638 55.4375 15.28125 C 55.544173 15.120057 55.61559 14.928506 55.6875 14.75 z "
         style="fill:#784421;fill-opacity:1;stroke:#d38d5f;stroke-width:0;stroke-linecap:round;stroke-linejoin:round;stroke-miterlimit:4;stroke-opacity:1;stroke-dasharray:none"
         id="path3859"
         d="M 55.65625,14.34375 A 0.39341339,0.39341339 0 0 0 55.5,14.40625 l -0.5,0.25 a 0.39341339,0.39341339 0 0 0 -0.1875,0.1875 c -0.06649,0.163209 -0.135772,0.30813 -0.21875,0.4375 a 0.39341339,0.39341339 0 0 0 0,0.03125 c -0.236146,0.398398 -0.48449,0.804678 -0.71875,1.21875 -0.312508,0.519553 -0.627008,1.001364 -1,1.4375 -0.198967,0.231265 -0.24693,0.314759 -0.4375,0.5 -0.309358,0.300706 -0.655549,0.546107 -1.03125,0.78125 -0.161836,0.100157 -0.314988,0.218051 -0.46875,0.3125 -0.0072,0.0044 -0.02405,-0.0044 -0.03125,0 -0.0042,0.0025 0.004,0.02879 0,0.03125 -0.01995,0.01229 -0.04663,0.02054 -0.0625,0.03125 -0.0063,0.0043 -0.02555,-0.0039 -0.03125,0 -0.0057,0.0039 0.0038,0.02888 0,0.03125 -0.01873,0.0103 -0.04317,0.0209 -0.0625,0.03125 -0.154649,0.08282 -0.329361,0.157552 -0.5,0.25 -0.360606,0.193979 -0.671922,0.377825 -1,0.5 -0.131745,0.03896 -0.07667,0.03172 -0.25,0.0625 -0.267551,0.04751 -0.597528,0.06279 -0.9375,0.125 -0.619869,0.08528 -1.229648,0.181237 -1.84375,0.28125 -0.270287,0.04876 -0.556327,0.07183 -0.875,0.15625 -0.216651,0.05739 -0.353667,0.09031 -0.5625,0.15625 -0.126689,0.04001 -0.200155,0.07806 -0.25,0.09375 -0.355047,0.12657 -0.76942,0.259398 -1.15625,0.46875 -0.249079,0.1348 -0.481868,0.27069 -0.71875,0.40625 -0.108029,0.06182 -0.184446,0.117297 -0.25,0.15625 a 0.39341339,0.39341339 0 0 0 -0.03125,0 c -0.435078,0.273932 -0.83749,0.584653 -1.25,0.875 -0.374647,0.265332 -0.779115,0.53801 -1.15625,0.875 a 0.39341339,0.39341339 0 0 0 -0.03125,0 c -0.175046,0.170169 -0.196147,0.238487 -0.34375,0.40625 -0.24114,0.274077 -0.459614,0.571803 -0.65625,0.84375 -0.289598,0.406255 -0.580043,0.794338 -0.84375,1.21875 -0.25112,0.384674 -0.484874,0.788816 -0.71875,1.1875 -0.226263,0.383631 -0.443474,0.762647 -0.65625,1.125 -0.0044,0.0076 0.0044,0.02371 0,0.03125 -0.231581,0.378314 -0.466555,0.75154 -0.71875,1.125 -0.251281,0.366033 -0.501893,0.717492 -0.75,1.0625 -0.0049,0.0068 0.0049,0.02442 0,0.03125 -0.145926,0.188766 -0.314184,0.394259 -0.46875,0.53125 a 0.39341339,0.39341339 0 0 0 0.40625,0.65625 l 0.53125,-0.21875 A 0.39341339,0.39341339 0 0 0 35.84375,32 c 0.220549,-0.20554 0.380589,-0.422027 0.53125,-0.625 a 0.39341339,0.39341339 0 0 0 0,-0.03125 c 0.255131,-0.367395 0.499771,-0.730015 0.75,-1.09375 0.258063,-0.384305 0.535383,-0.750284 0.78125,-1.15625 0.181906,-0.291851 0.279215,-0.583628 0.40625,-0.8125 0.0686,-0.123597 0.14124,-0.244384 0.21875,-0.375 0.218122,-0.371042 0.496857,-0.736515 0.75,-1.125 0.25332,-0.40896 0.501212,-0.826828 0.78125,-1.21875 0.208311,-0.290676 0.370515,-0.566916 0.5625,-0.78125 0.137729,-0.153761 0.204693,-0.181233 0.34375,-0.3125 0.01322,-0.01248 0.01595,-0.01669 0.03125,-0.03125 0.04922,-0.04199 0.107025,-0.08582 0.15625,-0.125 0.03803,-0.03027 0.104009,-0.09504 0.1875,-0.15625 0.232835,-0.170665 0.463808,-0.320462 0.71875,-0.5 0.398511,-0.281127 0.813894,-0.557465 1.21875,-0.8125 l 0.03125,0 c 0.0015,0.0013 0.0096,0.0015 0.0625,-0.03125 l -0.03125,-0.03125 c 0.09973,-0.04129 0.223456,-0.08151 0.25,-0.09375 0.246659,-0.11376 0.48276,-0.185071 0.75,-0.28125 0.350102,-0.113676 0.693132,-0.232803 1.03125,-0.3125 0.241443,-0.05691 0.315482,-0.07858 0.5625,-0.125 0.594619,-0.101009 1.222408,-0.167847 1.84375,-0.25 0.314797,-0.0594 0.69119,-0.06453 1.09375,-0.15625 0.165387,-0.03767 0.203317,-0.07507 0.15625,-0.0625 a 0.39341339,0.39341339 0 0 0 0.03125,0 c 0.432534,-0.14747 0.810903,-0.375453 1.15625,-0.5625 0.69978,-0.384726 1.405941,-0.759029 2.09375,-1.1875 0.408868,-0.256264 0.798181,-0.55106 1.15625,-0.90625 0.202036,-0.200411 0.340914,-0.339018 0.53125,-0.5625 0.431336,-0.505723 0.745815,-1.040352 1.0625,-1.5625 a 0.39341339,0.39341339 0 0 0 0,-0.03125 c 0.227004,-0.403833 0.475156,-0.786159 0.71875,-1.1875 l -0.03125,0 c 0.141231,-0.213414 0.243305,-0.421983 0.3125,-0.59375 a 0.39341339,0.39341339 0 0 0 -0.40625,-0.5625 z"
         transform="matrix(0.94606901,0,0,0.94606901,2.6401159,991.3558)" />
      <path
         transform="matrix(0.94606901,0,0,0.94606901,1.3292725,985.72689)"
         d="M 55.65625,14.34375 A 0.39341339,0.39341339 0 0 0 55.5,14.40625 l -0.5,0.25 a 0.39341339,0.39341339 0 0 0 -0.1875,0.1875 c -0.06649,0.163209 -0.135772,0.30813 -0.21875,0.4375 a 0.39341339,0.39341339 0 0 0 0,0.03125 c -0.236146,0.398398 -0.48449,0.804678 -0.71875,1.21875 -0.312508,0.519553 -0.627008,1.001364 -1,1.4375 -0.198967,0.231265 -0.24693,0.314759 -0.4375,0.5 -0.309358,0.300706 -0.655549,0.546107 -1.03125,0.78125 -0.161836,0.100157 -0.314988,0.218051 -0.46875,0.3125 -0.0072,0.0044 -0.02405,-0.0044 -0.03125,0 -0.0042,0.0025 0.004,0.02879 0,0.03125 -0.01995,0.01229 -0.04663,0.02054 -0.0625,0.03125 -0.0063,0.0043 -0.02555,-0.0039 -0.03125,0 -0.0057,0.0039 0.0038,0.02888 0,0.03125 -0.01873,0.0103 -0.04317,0.0209 -0.0625,0.03125 -0.154649,0.08282 -0.329361,0.157552 -0.5,0.25 -0.360606,0.193979 -0.671922,0.377825 -1,0.5 -0.131745,0.03896 -0.07667,0.03172 -0.25,0.0625 -0.267551,0.04751 -0.597528,0.06279 -0.9375,0.125 -0.619869,0.08528 -1.229648,0.181237 -1.84375,0.28125 -0.270287,0.04876 -0.556327,0.07183 -0.875,0.15625 -0.216651,0.05739 -0.353667,0.09031 -0.5625,0.15625 -0.126689,0.04001 -0.200155,0.07806 -0.25,0.09375 -0.355047,0.12657 -0.76942,0.259398 -1.15625,0.46875 -0.249079,0.1348 -0.481868,0.27069 -0.71875,0.40625 -0.108029,0.06182 -0.184446,0.117297 -0.25,0.15625 a 0.39341339,0.39341339 0 0 0 -0.03125,0 c -0.435078,0.273932 -0.83749,0.584653 -1.25,0.875 -0.374647,0.265332 -0.779115,0.53801 -1.15625,0.875 a 0.39341339,0.39341339 0 0 0 -0.03125,0 c -0.175046,0.170169 -0.196147,0.238487 -0.34375,0.40625 -0.24114,0.274077 -0.459614,0.571803 -0.65625,0.84375 -0.289598,0.406255 -0.580043,0.794338 -0.84375,1.21875 -0.25112,0.384674 -0.484874,0.788816 -0.71875,1.1875 -0.226263,0.383631 -0.443474,0.762647 -0.65625,1.125 -0.0044,0.0076 0.0044,0.02371 0,0.03125 -0.231581,0.378314 -0.466555,0.75154 -0.71875,1.125 -0.251281,0.366033 -0.501893,0.717492 -0.75,1.0625 -0.0049,0.0068 0.0049,0.02442 0,0.03125 -0.145926,0.188766 -0.314184,0.394259 -0.46875,0.53125 a 0.39341339,0.39341339 0 0 0 0.40625,0.65625 l 0.53125,-0.21875 A 0.39341339,0.39341339 0 0 0 35.84375,32 c 0.220549,-0.20554 0.380589,-0.422027 0.53125,-0.625 a 0.39341339,0.39341339 0 0 0 0,-0.03125 c 0.255131,-0.367395 0.499771,-0.730015 0.75,-1.09375 0.258063,-0.384305 0.535383,-0.750284 0.78125,-1.15625 0.181906,-0.291851 0.279215,-0.583628 0.40625,-0.8125 0.0686,-0.123597 0.14124,-0.244384 0.21875,-0.375 0.218122,-0.371042 0.496857,-0.736515 0.75,-1.125 0.25332,-0.40896 0.501212,-0.826828 0.78125,-1.21875 0.208311,-0.290676 0.370515,-0.566916 0.5625,-0.78125 0.137729,-0.153761 0.204693,-0.181233 0.34375,-0.3125 0.01322,-0.01248 0.01595,-0.01669 0.03125,-0.03125 0.04922,-0.04199 0.107025,-0.08582 0.15625,-0.125 0.03803,-0.03027 0.104009,-0.09504 0.1875,-0.15625 0.232835,-0.170665 0.463808,-0.320462 0.71875,-0.5 0.398511,-0.281127 0.813894,-0.557465 1.21875,-0.8125 l 0.03125,0 c 0.0015,0.0013 0.0096,0.0015 0.0625,-0.03125 l -0.03125,-0.03125 c 0.09973,-0.04129 0.223456,-0.08151 0.25,-0.09375 0.246659,-0.11376 0.48276,-0.185071 0.75,-0.28125 0.350102,-0.113676 0.693132,-0.232803 1.03125,-0.3125 0.241443,-0.05691 0.315482,-0.07858 0.5625,-0.125 0.594619,-0.101009 1.222408,-0.167847 1.84375,-0.25 0.314797,-0.0594 0.69119,-0.06453 1.09375,-0.15625 0.165387,-0.03767 0.203317,-0.07507 0.15625,-0.0625 a 0.39341339,0.39341339 0 0 0 0.03125,0 c 0.432534,-0.14747 0.810903,-0.375453 1.15625,-0.5625 0.69978,-0.384726 1.405941,-0.759029 2.09375,-1.1875 0.408868,-0.256264 0.798181,-0.55106 1.15625,-0.90625 0.202036,-0.200411 0.340914,-0.339018 0.53125,-0.5625 0.431336,-0.505723 0.745815,-1.040352 1.0625,-1.5625 a 0.39341339,0.39341339 0 0 0 0,-0.03125 c 0.227004,-0.403833 0.475156,-0.786159 0.71875,-1.1875 l -0.03125,0 c 0.141231,-0.213414 0.243305,-0.421983 0.3125,-0.59375 a 0.39341339,0.39341339 0 0 0 -0.40625,-0.5625 z"
         id="path3861"
         style="fill:#784421;fill-opacity:1;stroke:#d38d5f;stroke-width:0;stroke-linecap:round;stroke-linejoin:round;stroke-miterlimit:4;stroke-opacity:1;stroke-dasharray:none"
         inkscape:original="M 55.6875 14.75 L 55.1875 15 C 55.116561 15.174142 55.039389 15.341147 54.9375 15.5 C 54.699551 15.90144 54.448577 16.312514 54.21875 16.71875 C 53.904175 17.24174 53.585632 17.753218 53.1875 18.21875 C 52.998611 18.438301 52.927677 18.546916 52.71875 18.75 C 52.385266 19.074157 52.018465 19.347489 51.625 19.59375 C 51.459766 19.69601 51.290792 19.804907 51.125 19.90625 C 51.064186 19.941216 50.998819 19.989048 51.03125 19.96875 C 50.839861 20.076134 50.630465 20.176707 50.4375 20.28125 C 50.087885 20.469317 49.748037 20.673582 49.375 20.8125 C 49.225538 20.8567 49.218773 20.84725 49.0625 20.875 C 48.759356 20.928826 48.42798 20.94456 48.125 21 C 47.510149 21.08459 46.89392 21.18147 46.28125 21.28125 C 45.993709 21.333122 45.720168 21.36262 45.4375 21.4375 C 45.22639 21.493424 45.114245 21.52807 44.90625 21.59375 C 44.81788 21.62166 44.74465 21.65968 44.65625 21.6875 C 44.291911 21.817382 43.903783 21.940298 43.5625 22.125 C 43.320688 22.255867 43.082389 22.394684 42.84375 22.53125 C 42.758505 22.580034 42.67818 22.63733 42.59375 22.6875 C 42.168471 22.955262 41.754691 23.242007 41.34375 23.53125 C 40.962507 23.801254 40.567568 24.063313 40.21875 24.375 C 40.052801 24.536325 40.028317 24.575743 39.875 24.75 C 39.651985 25.003476 39.447459 25.289415 39.25 25.5625 C 38.964973 25.962343 38.696744 26.364021 38.4375 26.78125 C 38.18905 27.161834 37.94878 27.545373 37.71875 27.9375 C 37.494466 28.317775 37.286835 28.713525 37.0625 29.09375 C 36.821837 29.48814 36.571063 29.86711 36.3125 30.25 C 36.059996 30.617814 35.823681 30.982002 35.5625 31.34375 C 35.406193 31.547329 35.224043 31.766628 35.03125 31.9375 L 35.5625 31.71875 C 35.746321 31.547438 35.913149 31.326208 36.0625 31.125 C 36.315648 30.760461 36.560945 30.396912 36.8125 30.03125 C 37.07047 29.647083 37.322767 29.270837 37.5625 28.875 C 37.719396 28.623275 37.824978 28.352776 37.96875 28.09375 C 38.041549 27.962593 38.11095 27.847749 38.1875 27.71875 C 38.417265 27.327902 38.690044 26.942258 38.9375 26.5625 C 39.195533 26.145931 39.465223 25.742304 39.75 25.34375 C 39.945952 25.070319 40.118872 24.782306 40.34375 24.53125 C 40.502116 24.354449 40.547078 24.319598 40.71875 24.15625 C 40.782664 24.101429 40.84037 24.05244 40.90625 24 C 40.970866 23.948568 41.05839 23.89258 41.125 23.84375 C 41.368958 23.664932 41.596447 23.517908 41.84375 23.34375 C 42.251216 23.056306 42.671374 22.765107 43.09375 22.5 C 43.113592 22.488313 43.136642 22.480868 43.15625 22.46875 C 43.253715 22.451198 43.34757 22.38523 43.4375 22.34375 C 43.699416 22.222954 43.947644 22.12882 44.21875 22.03125 C 44.569205 21.917459 44.92233 21.80335 45.28125 21.71875 C 45.525722 21.66113 45.626242 21.6405 45.875 21.59375 C 46.486096 21.489942 47.10439 21.42498 47.71875 21.34375 C 48.074193 21.276681 48.428209 21.26794 48.78125 21.1875 C 48.835467 21.17515 48.88378 21.13935 48.9375 21.125 C 49.319052 20.994912 49.678118 20.785014 50.03125 20.59375 C 50.730007 20.209587 51.416888 19.827901 52.09375 19.40625 C 52.487392 19.159529 52.857111 18.890233 53.1875 18.5625 C 53.388621 18.362996 53.504664 18.245926 53.6875 18.03125 C 54.088429 17.561177 54.399555 17.026287 54.71875 16.5 C 54.949471 16.089554 55.19327 15.683638 55.4375 15.28125 C 55.544173 15.120057 55.61559 14.928506 55.6875 14.75 z "
         inkscape:radius="0.39337406"
         sodipodi:type="inkscape:offset" />
    </g>
  </g>
</svg>
